<mxfile host="Electron" agent="Mozilla/5.0 (Windows NT 10.0; Win64; x64) AppleWebKit/537.36 (KHTML, like Gecko) draw.io/26.1.1 Chrome/132.0.6834.210 Electron/34.3.3 Safari/537.36" version="26.1.1">
  <diagram name="Page-1" id="YkXez91c1sOHDVjvIstN">
    <mxGraphModel dx="7114" dy="1309" grid="1" gridSize="10" guides="1" tooltips="1" connect="1" arrows="1" fold="1" page="1" pageScale="1" pageWidth="2339" pageHeight="3300" math="0" shadow="0">
      <root>
        <mxCell id="0" />
        <mxCell id="1" parent="0" />
        <mxCell id="1d41M1mvJh5Ujd5rTAgr-3" value="&lt;span data-olk-copy-source=&quot;MessageBody&quot;&gt;&lt;font style=&quot;font-size: 11px;&quot;&gt;WaterWise App Project (R1,750,000)&lt;/font&gt;&lt;/span&gt;" style="swimlane;whiteSpace=wrap;html=1;startSize=40;swimlaneFillColor=default;fillColor=#cce5ff;strokeColor=#36393d;" parent="1" vertex="1">
          <mxGeometry x="-440" y="160" width="130" height="80" as="geometry" />
        </mxCell>
        <mxCell id="1d41M1mvJh5Ujd5rTAgr-10" value="&lt;i&gt;Shaquille&lt;/i&gt;" style="text;html=1;align=center;verticalAlign=middle;resizable=0;points=[];autosize=1;strokeColor=none;fillColor=none;" parent="1d41M1mvJh5Ujd5rTAgr-3" vertex="1">
          <mxGeometry x="30" y="40" width="70" height="30" as="geometry" />
        </mxCell>
        <mxCell id="1d41M1mvJh5Ujd5rTAgr-11" value="&lt;span data-olk-copy-source=&quot;MessageBody&quot;&gt;Functional Mobile App&amp;nbsp;&lt;/span&gt;&lt;div&gt;&lt;span data-olk-copy-source=&quot;MessageBody&quot;&gt;(R400,000)&lt;/span&gt;&lt;/div&gt;" style="swimlane;whiteSpace=wrap;html=1;startSize=40;swimlaneFillColor=default;fillColor=#CC99FF;strokeColor=#36393d;" parent="1" vertex="1">
          <mxGeometry x="-3000" y="440" width="130" height="80" as="geometry" />
        </mxCell>
        <mxCell id="1d41M1mvJh5Ujd5rTAgr-12" value="&lt;i&gt;Liam&lt;/i&gt;" style="text;html=1;align=center;verticalAlign=middle;resizable=0;points=[];autosize=1;strokeColor=none;fillColor=none;" parent="1d41M1mvJh5Ujd5rTAgr-11" vertex="1">
          <mxGeometry x="40" y="40" width="50" height="30" as="geometry" />
        </mxCell>
        <mxCell id="1d41M1mvJh5Ujd5rTAgr-13" value="&lt;span data-olk-copy-source=&quot;MessageBody&quot;&gt;Smart Meter Integration (R500,000)&lt;/span&gt;" style="swimlane;whiteSpace=wrap;html=1;startSize=40;swimlaneFillColor=default;fillColor=#CC99FF;strokeColor=#36393d;" parent="1" vertex="1">
          <mxGeometry x="-1770" y="440" width="140" height="80" as="geometry" />
        </mxCell>
        <mxCell id="1d41M1mvJh5Ujd5rTAgr-14" value="&lt;i&gt;Shaquille&lt;/i&gt;" style="text;html=1;align=center;verticalAlign=middle;resizable=0;points=[];autosize=1;strokeColor=none;fillColor=none;" parent="1d41M1mvJh5Ujd5rTAgr-13" vertex="1">
          <mxGeometry x="30" y="40" width="70" height="30" as="geometry" />
        </mxCell>
        <mxCell id="1d41M1mvJh5Ujd5rTAgr-15" value="&lt;span data-olk-copy-source=&quot;MessageBody&quot;&gt;Pilot Testing &amp;amp; Evaluation&amp;nbsp;&lt;/span&gt;&lt;div&gt;&lt;span data-olk-copy-source=&quot;MessageBody&quot;&gt;(R300,000)&lt;/span&gt;&lt;/div&gt;" style="swimlane;whiteSpace=wrap;html=1;startSize=40;fillColor=#CC99FF;strokeColor=#36393d;" parent="1" vertex="1">
          <mxGeometry x="800" y="440" width="130" height="80" as="geometry" />
        </mxCell>
        <mxCell id="1d41M1mvJh5Ujd5rTAgr-16" value="&lt;i&gt;Yusuf&lt;/i&gt;" style="text;html=1;align=center;verticalAlign=middle;resizable=0;points=[];autosize=1;strokeColor=none;fillColor=none;" parent="1d41M1mvJh5Ujd5rTAgr-15" vertex="1">
          <mxGeometry x="40" y="40" width="50" height="30" as="geometry" />
        </mxCell>
        <mxCell id="1d41M1mvJh5Ujd5rTAgr-17" value="&lt;span data-olk-copy-source=&quot;MessageBody&quot;&gt;&lt;font style=&quot;font-size: 10px;&quot;&gt;User Training &amp;amp; Community Engagement&amp;nbsp;&lt;/font&gt;&lt;/span&gt;&lt;div&gt;&lt;span data-olk-copy-source=&quot;MessageBody&quot;&gt;&lt;font style=&quot;font-size: 10px;&quot;&gt;(R300,000)&lt;/font&gt;&lt;/span&gt;&lt;/div&gt;" style="swimlane;whiteSpace=wrap;html=1;startSize=50;fillColor=#CC99FF;strokeColor=#36393d;" parent="1" vertex="1">
          <mxGeometry x="-440" y="440" width="150" height="80" as="geometry" />
        </mxCell>
        <mxCell id="1d41M1mvJh5Ujd5rTAgr-18" value="&lt;i&gt;Josh&lt;/i&gt;" style="text;html=1;align=center;verticalAlign=middle;resizable=0;points=[];autosize=1;strokeColor=none;fillColor=none;" parent="1d41M1mvJh5Ujd5rTAgr-17" vertex="1">
          <mxGeometry x="50" y="50" width="50" height="30" as="geometry" />
        </mxCell>
        <mxCell id="1d41M1mvJh5Ujd5rTAgr-19" value="&lt;span data-olk-copy-source=&quot;MessageBody&quot;&gt;Beta Deployment (R120,000)&amp;nbsp;&lt;/span&gt;" style="swimlane;whiteSpace=wrap;html=1;startSize=40;fillColor=#cdeb8b;strokeColor=#36393d;" parent="1" vertex="1">
          <mxGeometry x="380" y="650" width="140" height="80" as="geometry" />
        </mxCell>
        <mxCell id="1d41M1mvJh5Ujd5rTAgr-20" value="&lt;i&gt;Shaquille&lt;/i&gt;" style="text;html=1;align=center;verticalAlign=middle;resizable=0;points=[];autosize=1;strokeColor=none;fillColor=none;" parent="1d41M1mvJh5Ujd5rTAgr-19" vertex="1">
          <mxGeometry x="30" y="40" width="70" height="30" as="geometry" />
        </mxCell>
        <mxCell id="1d41M1mvJh5Ujd5rTAgr-21" value="&lt;span data-olk-copy-source=&quot;MessageBody&quot;&gt;&lt;font style=&quot;font-size: 11px;&quot;&gt;Final Report &amp;amp; Release Plan&amp;nbsp;&lt;/font&gt;&lt;/span&gt;&lt;div&gt;&lt;span data-olk-copy-source=&quot;MessageBody&quot;&gt;&lt;font style=&quot;font-size: 11px;&quot;&gt;(R250,000)&lt;/font&gt;&lt;/span&gt;&lt;/div&gt;" style="swimlane;whiteSpace=wrap;html=1;startSize=40;fillColor=#CC99FF;strokeColor=#36393d;" parent="1" vertex="1">
          <mxGeometry x="1990" y="440" width="130" height="80" as="geometry" />
        </mxCell>
        <mxCell id="1d41M1mvJh5Ujd5rTAgr-22" value="&lt;i&gt;Shaquille&lt;/i&gt;" style="text;html=1;align=center;verticalAlign=middle;resizable=0;points=[];autosize=1;strokeColor=none;fillColor=none;" parent="1d41M1mvJh5Ujd5rTAgr-21" vertex="1">
          <mxGeometry x="30" y="40" width="70" height="30" as="geometry" />
        </mxCell>
        <mxCell id="1d41M1mvJh5Ujd5rTAgr-33" value="&lt;span data-olk-copy-source=&quot;MessageBody&quot;&gt;&lt;font style=&quot;font-size: 11px;&quot;&gt;Hardware Procurement &amp;amp; Setup&amp;nbsp;&lt;/font&gt;&lt;/span&gt;&lt;div&gt;&lt;span data-olk-copy-source=&quot;MessageBody&quot;&gt;&lt;font style=&quot;font-size: 11px;&quot;&gt;(R200,000)&amp;nbsp;&lt;/font&gt;&lt;/span&gt;&lt;/div&gt;" style="swimlane;whiteSpace=wrap;html=1;startSize=40;fillColor=#cdeb8b;strokeColor=#36393d;" parent="1" vertex="1">
          <mxGeometry x="-2160" y="640" width="130" height="80" as="geometry" />
        </mxCell>
        <mxCell id="1d41M1mvJh5Ujd5rTAgr-34" value="&lt;i&gt;Liam&lt;/i&gt;" style="text;html=1;align=center;verticalAlign=middle;resizable=0;points=[];autosize=1;strokeColor=none;fillColor=none;" parent="1d41M1mvJh5Ujd5rTAgr-33" vertex="1">
          <mxGeometry x="40" y="40" width="50" height="30" as="geometry" />
        </mxCell>
        <mxCell id="1d41M1mvJh5Ujd5rTAgr-35" value="&lt;span data-olk-copy-source=&quot;MessageBody&quot;&gt;Software Integration (R200,000)&amp;nbsp;&lt;/span&gt;" style="swimlane;whiteSpace=wrap;html=1;startSize=40;fillColor=#cdeb8b;strokeColor=#36393d;" parent="1" vertex="1">
          <mxGeometry x="-1760" y="640" width="130" height="80" as="geometry" />
        </mxCell>
        <mxCell id="1d41M1mvJh5Ujd5rTAgr-36" value="&lt;i&gt;Yusuf&lt;/i&gt;" style="text;html=1;align=center;verticalAlign=middle;resizable=0;points=[];autosize=1;strokeColor=none;fillColor=none;" parent="1d41M1mvJh5Ujd5rTAgr-35" vertex="1">
          <mxGeometry x="40" y="40" width="50" height="30" as="geometry" />
        </mxCell>
        <mxCell id="1d41M1mvJh5Ujd5rTAgr-37" value="&lt;span data-olk-copy-source=&quot;MessageBody&quot;&gt;&lt;font style=&quot;font-size: 11px;&quot;&gt;Maintenance &amp;amp; Support Setup&amp;nbsp;&lt;/font&gt;&lt;/span&gt;&lt;div&gt;&lt;span data-olk-copy-source=&quot;MessageBody&quot;&gt;&lt;font style=&quot;font-size: 11px;&quot;&gt;(R100,000)&lt;/font&gt;&amp;nbsp;&lt;/span&gt;&lt;/div&gt;" style="swimlane;whiteSpace=wrap;html=1;startSize=40;fillColor=#cdeb8b;strokeColor=#36393d;" parent="1" vertex="1">
          <mxGeometry x="-1330" y="640" width="130" height="80" as="geometry" />
        </mxCell>
        <mxCell id="1d41M1mvJh5Ujd5rTAgr-38" value="&lt;i&gt;Josh&lt;/i&gt;" style="text;html=1;align=center;verticalAlign=middle;resizable=0;points=[];autosize=1;strokeColor=none;fillColor=none;" parent="1d41M1mvJh5Ujd5rTAgr-37" vertex="1">
          <mxGeometry x="40" y="40" width="50" height="30" as="geometry" />
        </mxCell>
        <mxCell id="1d41M1mvJh5Ujd5rTAgr-39" value="&lt;font style=&quot;&quot;&gt;&lt;span data-olk-copy-source=&quot;MessageBody&quot;&gt;App Development (R200,000)&amp;nbsp;&lt;/span&gt;&lt;/font&gt;" style="swimlane;whiteSpace=wrap;html=1;startSize=40;fillColor=#cdeb8b;strokeColor=#36393d;" parent="1" vertex="1">
          <mxGeometry x="-3000" y="640" width="130" height="80" as="geometry" />
        </mxCell>
        <mxCell id="1d41M1mvJh5Ujd5rTAgr-40" value="&lt;i&gt;Josh&lt;/i&gt;" style="text;html=1;align=center;verticalAlign=middle;resizable=0;points=[];autosize=1;strokeColor=none;fillColor=none;" parent="1d41M1mvJh5Ujd5rTAgr-39" vertex="1">
          <mxGeometry x="40" y="40" width="50" height="30" as="geometry" />
        </mxCell>
        <mxCell id="1d41M1mvJh5Ujd5rTAgr-43" value="&lt;span data-olk-copy-source=&quot;MessageBody&quot;&gt;Quality Assurance &amp;amp; Testing&amp;nbsp;&lt;/span&gt;&lt;div&gt;&lt;span data-olk-copy-source=&quot;MessageBody&quot;&gt;(R80,000)&amp;nbsp;&lt;/span&gt;&lt;/div&gt;" style="swimlane;whiteSpace=wrap;html=1;startSize=40;fillColor=#cdeb8b;strokeColor=#36393d;" parent="1" vertex="1">
          <mxGeometry x="-2620" y="640" width="130" height="80" as="geometry" />
        </mxCell>
        <mxCell id="1d41M1mvJh5Ujd5rTAgr-44" value="&lt;i&gt;Yusuf&lt;/i&gt;" style="text;html=1;align=center;verticalAlign=middle;resizable=0;points=[];autosize=1;strokeColor=none;fillColor=none;" parent="1d41M1mvJh5Ujd5rTAgr-43" vertex="1">
          <mxGeometry x="40" y="40" width="50" height="30" as="geometry" />
        </mxCell>
        <mxCell id="1d41M1mvJh5Ujd5rTAgr-47" value="&lt;span data-olk-copy-source=&quot;MessageBody&quot;&gt;&lt;font style=&quot;font-size: 11px;&quot;&gt;Community Workshops (R120,000)&lt;/font&gt;&lt;/span&gt;" style="swimlane;whiteSpace=wrap;html=1;startSize=40;fillColor=#cdeb8b;strokeColor=#36393d;" parent="1" vertex="1">
          <mxGeometry x="-440" y="640" width="130" height="80" as="geometry" />
        </mxCell>
        <mxCell id="1d41M1mvJh5Ujd5rTAgr-48" value="&lt;i&gt;Shaquille&lt;/i&gt;" style="text;html=1;align=center;verticalAlign=middle;resizable=0;points=[];autosize=1;strokeColor=none;fillColor=none;" parent="1d41M1mvJh5Ujd5rTAgr-47" vertex="1">
          <mxGeometry x="30" y="45" width="70" height="30" as="geometry" />
        </mxCell>
        <mxCell id="1d41M1mvJh5Ujd5rTAgr-49" value="&lt;span data-olk-copy-source=&quot;MessageBody&quot;&gt;Feedback &amp;amp; Survey Analysis&amp;nbsp;&lt;/span&gt;&lt;div&gt;&lt;span data-olk-copy-source=&quot;MessageBody&quot;&gt;(R80,000)&lt;/span&gt;&lt;/div&gt;" style="swimlane;whiteSpace=wrap;html=1;startSize=40;fillColor=#cdeb8b;strokeColor=#36393d;" parent="1" vertex="1">
          <mxGeometry x="-50" y="640" width="130" height="80" as="geometry" />
        </mxCell>
        <mxCell id="1d41M1mvJh5Ujd5rTAgr-50" value="&lt;i&gt;Yusuf&lt;/i&gt;" style="text;html=1;align=center;verticalAlign=middle;resizable=0;points=[];autosize=1;strokeColor=none;fillColor=none;" parent="1d41M1mvJh5Ujd5rTAgr-49" vertex="1">
          <mxGeometry x="40" y="40" width="50" height="30" as="geometry" />
        </mxCell>
        <mxCell id="1d41M1mvJh5Ujd5rTAgr-51" value="&lt;span data-olk-copy-source=&quot;MessageBody&quot;&gt;&amp;nbsp;Issue Tracking &amp;amp; Resolution&amp;nbsp;&lt;/span&gt;&lt;div&gt;&lt;span data-olk-copy-source=&quot;MessageBody&quot;&gt;(R100,000)&lt;/span&gt;&lt;/div&gt;" style="swimlane;whiteSpace=wrap;html=1;startSize=40;fillColor=#cdeb8b;strokeColor=#36393d;" parent="1" vertex="1">
          <mxGeometry x="800" y="650" width="130" height="80" as="geometry" />
        </mxCell>
        <mxCell id="1d41M1mvJh5Ujd5rTAgr-52" value="&lt;i&gt;Liam&lt;/i&gt;" style="text;html=1;align=center;verticalAlign=middle;resizable=0;points=[];autosize=1;strokeColor=none;fillColor=none;" parent="1d41M1mvJh5Ujd5rTAgr-51" vertex="1">
          <mxGeometry x="40" y="40" width="50" height="30" as="geometry" />
        </mxCell>
        <mxCell id="1d41M1mvJh5Ujd5rTAgr-53" value="&lt;span data-olk-copy-source=&quot;MessageBody&quot;&gt;Post-Deployment Review&amp;nbsp;&lt;/span&gt;&lt;div&gt;&lt;span data-olk-copy-source=&quot;MessageBody&quot;&gt;(R50,000)&amp;nbsp;&lt;/span&gt;&lt;/div&gt;" style="swimlane;whiteSpace=wrap;html=1;startSize=40;fillColor=#cdeb8b;strokeColor=#36393d;" parent="1" vertex="1">
          <mxGeometry x="2420" y="650" width="130" height="80" as="geometry" />
        </mxCell>
        <mxCell id="1d41M1mvJh5Ujd5rTAgr-54" value="&lt;i&gt;Josh&lt;/i&gt;" style="text;html=1;align=center;verticalAlign=middle;resizable=0;points=[];autosize=1;strokeColor=none;fillColor=none;" parent="1d41M1mvJh5Ujd5rTAgr-53" vertex="1">
          <mxGeometry x="40" y="40" width="50" height="30" as="geometry" />
        </mxCell>
        <mxCell id="1d41M1mvJh5Ujd5rTAgr-379" value="5.3" style="text;html=1;align=center;verticalAlign=middle;whiteSpace=wrap;rounded=0;" parent="1d41M1mvJh5Ujd5rTAgr-53" vertex="1">
          <mxGeometry x="90" y="-20" width="60" height="30" as="geometry" />
        </mxCell>
        <mxCell id="1d41M1mvJh5Ujd5rTAgr-55" value="&lt;span data-olk-copy-source=&quot;MessageBody&quot;&gt;Evaluation Report (R80,000)&amp;nbsp;&lt;/span&gt;" style="swimlane;whiteSpace=wrap;html=1;startSize=40;fillColor=#cdeb8b;strokeColor=#36393d;" parent="1" vertex="1">
          <mxGeometry x="1230" y="650" width="130" height="80" as="geometry" />
        </mxCell>
        <mxCell id="1d41M1mvJh5Ujd5rTAgr-56" value="&lt;i&gt;Yusuf&lt;/i&gt;" style="text;html=1;align=center;verticalAlign=middle;resizable=0;points=[];autosize=1;strokeColor=none;fillColor=none;" parent="1d41M1mvJh5Ujd5rTAgr-55" vertex="1">
          <mxGeometry x="40" y="40" width="50" height="30" as="geometry" />
        </mxCell>
        <mxCell id="1d41M1mvJh5Ujd5rTAgr-57" value="&lt;span data-olk-copy-source=&quot;MessageBody&quot;&gt;Compilation of Final Report&amp;nbsp;&lt;/span&gt;&lt;div&gt;&lt;span data-olk-copy-source=&quot;MessageBody&quot;&gt;(R120,000)&amp;nbsp;&lt;/span&gt;&lt;/div&gt;" style="swimlane;whiteSpace=wrap;html=1;startSize=40;fillColor=#cdeb8b;strokeColor=#36393d;" parent="1" vertex="1">
          <mxGeometry x="1610" y="650" width="140" height="80" as="geometry" />
        </mxCell>
        <mxCell id="1d41M1mvJh5Ujd5rTAgr-58" value="&lt;i&gt;Yusuf&lt;/i&gt;" style="text;html=1;align=center;verticalAlign=middle;resizable=0;points=[];autosize=1;strokeColor=none;fillColor=none;" parent="1d41M1mvJh5Ujd5rTAgr-57" vertex="1">
          <mxGeometry x="40" y="45" width="50" height="30" as="geometry" />
        </mxCell>
        <mxCell id="1d41M1mvJh5Ujd5rTAgr-59" value="&lt;span data-olk-copy-source=&quot;MessageBody&quot;&gt;Final App Launch (R80,000)&amp;nbsp;&lt;/span&gt;" style="swimlane;whiteSpace=wrap;html=1;startSize=40;fillColor=#cdeb8b;strokeColor=#36393d;" parent="1" vertex="1">
          <mxGeometry x="2000" y="650" width="140" height="80" as="geometry" />
        </mxCell>
        <mxCell id="1d41M1mvJh5Ujd5rTAgr-60" value="&lt;i&gt;Shaquille&lt;/i&gt;" style="text;html=1;align=center;verticalAlign=middle;resizable=0;points=[];autosize=1;strokeColor=none;fillColor=none;" parent="1d41M1mvJh5Ujd5rTAgr-59" vertex="1">
          <mxGeometry x="30" y="40" width="70" height="30" as="geometry" />
        </mxCell>
        <mxCell id="1d41M1mvJh5Ujd5rTAgr-64" value="&lt;span data-olk-copy-source=&quot;MessageBody&quot;&gt;App User Manual (R30,000)&lt;/span&gt;" style="swimlane;whiteSpace=wrap;html=1;startSize=40;fillColor=#ffcc99;strokeColor=#36393d;" parent="1" vertex="1">
          <mxGeometry x="-1010" y="820" width="140" height="80" as="geometry" />
        </mxCell>
        <mxCell id="1d41M1mvJh5Ujd5rTAgr-65" value="&lt;i&gt;Yusuf&lt;/i&gt;" style="text;html=1;align=center;verticalAlign=middle;resizable=0;points=[];autosize=1;strokeColor=none;fillColor=none;" parent="1d41M1mvJh5Ujd5rTAgr-64" vertex="1">
          <mxGeometry x="45" y="40" width="50" height="30" as="geometry" />
        </mxCell>
        <mxCell id="1d41M1mvJh5Ujd5rTAgr-68" value="&lt;span data-olk-copy-source=&quot;MessageBody&quot;&gt;Video Tutorials (R40,000)&lt;/span&gt;" style="swimlane;whiteSpace=wrap;html=1;startSize=40;fillColor=#ffcc99;strokeColor=#36393d;" parent="1" vertex="1">
          <mxGeometry x="-860" y="820" width="130" height="80" as="geometry" />
        </mxCell>
        <mxCell id="1d41M1mvJh5Ujd5rTAgr-69" value="&lt;i&gt;Josh&lt;/i&gt;" style="text;html=1;align=center;verticalAlign=middle;resizable=0;points=[];autosize=1;strokeColor=none;fillColor=none;" parent="1d41M1mvJh5Ujd5rTAgr-68" vertex="1">
          <mxGeometry x="40" y="40" width="50" height="30" as="geometry" />
        </mxCell>
        <mxCell id="1d41M1mvJh5Ujd5rTAgr-70" value="&lt;span data-olk-copy-source=&quot;MessageBody&quot;&gt;&lt;font style=&quot;font-size: 11px;&quot;&gt;Training Content Development (R100,000)&lt;/font&gt;&lt;/span&gt;" style="swimlane;whiteSpace=wrap;html=1;startSize=40;fillColor=#cdeb8b;strokeColor=#36393d;" parent="1" vertex="1">
          <mxGeometry x="-860" y="640" width="140" height="80" as="geometry" />
        </mxCell>
        <mxCell id="1d41M1mvJh5Ujd5rTAgr-71" value="&lt;i&gt;Josh&lt;/i&gt;" style="text;html=1;align=center;verticalAlign=middle;resizable=0;points=[];autosize=1;strokeColor=none;fillColor=none;" parent="1d41M1mvJh5Ujd5rTAgr-70" vertex="1">
          <mxGeometry x="40" y="40" width="50" height="30" as="geometry" />
        </mxCell>
        <mxCell id="1d41M1mvJh5Ujd5rTAgr-72" value="&lt;span data-olk-copy-source=&quot;MessageBody&quot;&gt;FAQs &amp;amp; Support Docs (R30,000)&lt;/span&gt;" style="swimlane;whiteSpace=wrap;html=1;startSize=40;fillColor=#ffcc99;strokeColor=#36393d;" parent="1" vertex="1">
          <mxGeometry x="-710" y="820" width="140" height="80" as="geometry" />
        </mxCell>
        <mxCell id="1d41M1mvJh5Ujd5rTAgr-73" value="&lt;i&gt;Liam&lt;/i&gt;" style="text;html=1;align=center;verticalAlign=middle;resizable=0;points=[];autosize=1;strokeColor=none;fillColor=none;" parent="1d41M1mvJh5Ujd5rTAgr-72" vertex="1">
          <mxGeometry x="45" y="40" width="50" height="30" as="geometry" />
        </mxCell>
        <mxCell id="1d41M1mvJh5Ujd5rTAgr-346" value="3.1.3" style="text;html=1;align=center;verticalAlign=middle;whiteSpace=wrap;rounded=0;" parent="1d41M1mvJh5Ujd5rTAgr-72" vertex="1">
          <mxGeometry x="80" y="-20" width="60" height="30" as="geometry" />
        </mxCell>
        <mxCell id="1d41M1mvJh5Ujd5rTAgr-74" value="&lt;span data-olk-copy-source=&quot;MessageBody&quot;&gt;Venue Booking (R40,000)&lt;/span&gt;" style="swimlane;whiteSpace=wrap;html=1;startSize=40;fillColor=#ffcc99;strokeColor=#36393d;" parent="1" vertex="1">
          <mxGeometry x="-590" y="1040" width="130" height="80" as="geometry" />
        </mxCell>
        <mxCell id="1d41M1mvJh5Ujd5rTAgr-75" value="&lt;i&gt;Shaquille&lt;/i&gt;" style="text;html=1;align=center;verticalAlign=middle;resizable=0;points=[];autosize=1;strokeColor=none;fillColor=none;" parent="1d41M1mvJh5Ujd5rTAgr-74" vertex="1">
          <mxGeometry x="30" y="40" width="70" height="30" as="geometry" />
        </mxCell>
        <mxCell id="1d41M1mvJh5Ujd5rTAgr-76" value="&lt;span data-olk-copy-source=&quot;MessageBody&quot;&gt;Flyers &amp;amp; Posters (R30,000)&lt;/span&gt;" style="swimlane;whiteSpace=wrap;html=1;startSize=40;fillColor=#ffcc99;strokeColor=#36393d;" parent="1" vertex="1">
          <mxGeometry x="-440" y="1040" width="130" height="80" as="geometry" />
        </mxCell>
        <mxCell id="1d41M1mvJh5Ujd5rTAgr-77" value="&lt;i&gt;Yusuf&lt;/i&gt;" style="text;html=1;align=center;verticalAlign=middle;resizable=0;points=[];autosize=1;strokeColor=none;fillColor=none;" parent="1d41M1mvJh5Ujd5rTAgr-76" vertex="1">
          <mxGeometry x="40" y="40" width="50" height="30" as="geometry" />
        </mxCell>
        <mxCell id="1d41M1mvJh5Ujd5rTAgr-78" value="&lt;span data-olk-copy-source=&quot;MessageBody&quot;&gt;&lt;font style=&quot;font-size: 11px;&quot;&gt;Community Walkthroughs&amp;nbsp;&lt;/font&gt;&lt;/span&gt;&lt;div&gt;&lt;span data-olk-copy-source=&quot;MessageBody&quot;&gt;&lt;font style=&quot;font-size: 11px;&quot;&gt;(R50,000)&lt;/font&gt;&lt;/span&gt;&lt;/div&gt;" style="swimlane;whiteSpace=wrap;html=1;startSize=40;fillColor=#ffcc99;strokeColor=#36393d;" parent="1" vertex="1">
          <mxGeometry x="-290" y="1040" width="130" height="80" as="geometry" />
        </mxCell>
        <mxCell id="1d41M1mvJh5Ujd5rTAgr-79" value="&lt;i&gt;Josh&lt;/i&gt;" style="text;html=1;align=center;verticalAlign=middle;resizable=0;points=[];autosize=1;strokeColor=none;fillColor=none;" parent="1d41M1mvJh5Ujd5rTAgr-78" vertex="1">
          <mxGeometry x="40" y="40" width="50" height="30" as="geometry" />
        </mxCell>
        <mxCell id="1d41M1mvJh5Ujd5rTAgr-80" value="&lt;span data-olk-copy-source=&quot;MessageBody&quot;&gt;Conduct Surveys (R30,000)&lt;/span&gt;" style="swimlane;whiteSpace=wrap;html=1;startSize=40;fillColor=#ffcc99;strokeColor=#36393d;" parent="1" vertex="1">
          <mxGeometry x="-200" y="820" width="130" height="80" as="geometry" />
        </mxCell>
        <mxCell id="1d41M1mvJh5Ujd5rTAgr-81" value="&lt;i&gt;Liam&lt;/i&gt;" style="text;html=1;align=center;verticalAlign=middle;resizable=0;points=[];autosize=1;strokeColor=none;fillColor=none;" parent="1d41M1mvJh5Ujd5rTAgr-80" vertex="1">
          <mxGeometry x="40" y="40" width="50" height="30" as="geometry" />
        </mxCell>
        <mxCell id="1d41M1mvJh5Ujd5rTAgr-82" value="&lt;span data-olk-copy-source=&quot;MessageBody&quot;&gt;Data Compilation (R25,000)&lt;/span&gt;" style="swimlane;whiteSpace=wrap;html=1;startSize=40;fillColor=#ffcc99;strokeColor=#36393d;" parent="1" vertex="1">
          <mxGeometry x="-50" y="820" width="130" height="80" as="geometry" />
        </mxCell>
        <mxCell id="1d41M1mvJh5Ujd5rTAgr-83" value="&lt;i&gt;Yusuf&lt;/i&gt;" style="text;html=1;align=center;verticalAlign=middle;resizable=0;points=[];autosize=1;strokeColor=none;fillColor=none;" parent="1d41M1mvJh5Ujd5rTAgr-82" vertex="1">
          <mxGeometry x="40" y="40" width="50" height="30" as="geometry" />
        </mxCell>
        <mxCell id="1d41M1mvJh5Ujd5rTAgr-84" value="&lt;span data-olk-copy-source=&quot;MessageBody&quot;&gt;&lt;font style=&quot;font-size: 10px;&quot;&gt;Adjustment Recommendations (R25,000)&lt;/font&gt;&lt;/span&gt;" style="swimlane;whiteSpace=wrap;html=1;startSize=40;fillColor=#ffcc99;strokeColor=#36393d;" parent="1" vertex="1">
          <mxGeometry x="100" y="820" width="130" height="80" as="geometry" />
        </mxCell>
        <mxCell id="1d41M1mvJh5Ujd5rTAgr-85" value="&lt;i&gt;Shaquille&lt;/i&gt;" style="text;html=1;align=center;verticalAlign=middle;resizable=0;points=[];autosize=1;strokeColor=none;fillColor=none;" parent="1d41M1mvJh5Ujd5rTAgr-84" vertex="1">
          <mxGeometry x="30" y="45" width="70" height="30" as="geometry" />
        </mxCell>
        <mxCell id="1d41M1mvJh5Ujd5rTAgr-86" value="&lt;span data-olk-copy-source=&quot;MessageBody&quot;&gt;Select Test Area (R30,000)&lt;/span&gt;" style="swimlane;whiteSpace=wrap;html=1;startSize=40;fillColor=#ffcc99;strokeColor=#36393d;" parent="1" vertex="1">
          <mxGeometry x="230" y="1040" width="130" height="80" as="geometry" />
        </mxCell>
        <mxCell id="1d41M1mvJh5Ujd5rTAgr-87" value="&lt;i&gt;Josh&lt;/i&gt;" style="text;html=1;align=center;verticalAlign=middle;resizable=0;points=[];autosize=1;strokeColor=none;fillColor=none;" parent="1d41M1mvJh5Ujd5rTAgr-86" vertex="1">
          <mxGeometry x="40" y="40" width="50" height="30" as="geometry" />
        </mxCell>
        <mxCell id="1d41M1mvJh5Ujd5rTAgr-88" value="&lt;span data-olk-copy-source=&quot;MessageBody&quot;&gt;Configure Test Devices (R60,000)&lt;/span&gt;" style="swimlane;whiteSpace=wrap;html=1;startSize=40;fillColor=#ffcc99;strokeColor=#36393d;" parent="1" vertex="1">
          <mxGeometry x="380" y="1040" width="130" height="80" as="geometry" />
        </mxCell>
        <mxCell id="1d41M1mvJh5Ujd5rTAgr-89" value="&lt;i&gt;Liam&lt;/i&gt;" style="text;html=1;align=center;verticalAlign=middle;resizable=0;points=[];autosize=1;strokeColor=none;fillColor=none;" parent="1d41M1mvJh5Ujd5rTAgr-88" vertex="1">
          <mxGeometry x="40" y="40" width="50" height="30" as="geometry" />
        </mxCell>
        <mxCell id="1d41M1mvJh5Ujd5rTAgr-90" value="&lt;span data-olk-copy-source=&quot;MessageBody&quot;&gt;Monitor Live Usage (R30,000)&lt;/span&gt;" style="swimlane;whiteSpace=wrap;html=1;startSize=40;fillColor=#ffcc99;strokeColor=#36393d;" parent="1" vertex="1">
          <mxGeometry x="530" y="1040" width="130" height="80" as="geometry" />
        </mxCell>
        <mxCell id="1d41M1mvJh5Ujd5rTAgr-91" value="&lt;i&gt;Shaquille&lt;/i&gt;" style="text;html=1;align=center;verticalAlign=middle;resizable=0;points=[];autosize=1;strokeColor=none;fillColor=none;" parent="1d41M1mvJh5Ujd5rTAgr-90" vertex="1">
          <mxGeometry x="30" y="40" width="70" height="30" as="geometry" />
        </mxCell>
        <mxCell id="1d41M1mvJh5Ujd5rTAgr-92" value="&lt;span data-olk-copy-source=&quot;MessageBody&quot;&gt;Bug Logging (R30,000)&lt;/span&gt;" style="swimlane;whiteSpace=wrap;html=1;startSize=40;fillColor=#ffcc99;strokeColor=#36393d;" parent="1" vertex="1">
          <mxGeometry x="650" y="840" width="130" height="80" as="geometry" />
        </mxCell>
        <mxCell id="1d41M1mvJh5Ujd5rTAgr-93" value="&lt;i&gt;Liam&lt;/i&gt;" style="text;html=1;align=center;verticalAlign=middle;resizable=0;points=[];autosize=1;strokeColor=none;fillColor=none;" parent="1d41M1mvJh5Ujd5rTAgr-92" vertex="1">
          <mxGeometry x="40" y="40" width="50" height="30" as="geometry" />
        </mxCell>
        <mxCell id="1d41M1mvJh5Ujd5rTAgr-94" value="&lt;span data-olk-copy-source=&quot;MessageBody&quot;&gt;Community Reports (R40,000)&lt;/span&gt;" style="swimlane;whiteSpace=wrap;html=1;startSize=40;fillColor=#ffcc99;strokeColor=#36393d;" parent="1" vertex="1">
          <mxGeometry x="800" y="840" width="130" height="80" as="geometry" />
        </mxCell>
        <mxCell id="1d41M1mvJh5Ujd5rTAgr-95" value="&lt;i&gt;Josh&lt;/i&gt;" style="text;html=1;align=center;verticalAlign=middle;resizable=0;points=[];autosize=1;strokeColor=none;fillColor=none;" parent="1d41M1mvJh5Ujd5rTAgr-94" vertex="1">
          <mxGeometry x="40" y="40" width="50" height="30" as="geometry" />
        </mxCell>
        <mxCell id="1d41M1mvJh5Ujd5rTAgr-96" value="&lt;span data-olk-copy-source=&quot;MessageBody&quot;&gt;Fix &amp;amp; Deploy Updates (R30,000)&lt;/span&gt;" style="swimlane;whiteSpace=wrap;html=1;startSize=40;fillColor=#ffcc99;strokeColor=#36393d;" parent="1" vertex="1">
          <mxGeometry x="950" y="840" width="130" height="80" as="geometry" />
        </mxCell>
        <mxCell id="1d41M1mvJh5Ujd5rTAgr-97" value="&lt;i&gt;Yusuf&lt;/i&gt;" style="text;html=1;align=center;verticalAlign=middle;resizable=0;points=[];autosize=1;strokeColor=none;fillColor=none;" parent="1d41M1mvJh5Ujd5rTAgr-96" vertex="1">
          <mxGeometry x="40" y="40" width="50" height="30" as="geometry" />
        </mxCell>
        <mxCell id="1d41M1mvJh5Ujd5rTAgr-98" value="&lt;span data-olk-copy-source=&quot;MessageBody&quot;&gt;Data Insights (R30,000)&lt;/span&gt;" style="swimlane;whiteSpace=wrap;html=1;startSize=40;fillColor=#ffcc99;strokeColor=#36393d;" parent="1" vertex="1">
          <mxGeometry x="1080" y="1040" width="130" height="80" as="geometry" />
        </mxCell>
        <mxCell id="1d41M1mvJh5Ujd5rTAgr-99" value="&lt;i&gt;Shaquille&lt;/i&gt;" style="text;html=1;align=center;verticalAlign=middle;resizable=0;points=[];autosize=1;strokeColor=none;fillColor=none;" parent="1d41M1mvJh5Ujd5rTAgr-98" vertex="1">
          <mxGeometry x="30" y="40" width="70" height="30" as="geometry" />
        </mxCell>
        <mxCell id="1d41M1mvJh5Ujd5rTAgr-100" value="&lt;span data-olk-copy-source=&quot;MessageBody&quot;&gt;Recommendations (R25,000)&lt;/span&gt;" style="swimlane;whiteSpace=wrap;html=1;startSize=40;fillColor=#ffcc99;strokeColor=#36393d;" parent="1" vertex="1">
          <mxGeometry x="1230" y="1040" width="130" height="80" as="geometry" />
        </mxCell>
        <mxCell id="1d41M1mvJh5Ujd5rTAgr-101" value="&lt;i&gt;Yusuf&lt;/i&gt;" style="text;html=1;align=center;verticalAlign=middle;resizable=0;points=[];autosize=1;strokeColor=none;fillColor=none;" parent="1d41M1mvJh5Ujd5rTAgr-100" vertex="1">
          <mxGeometry x="40" y="40" width="50" height="30" as="geometry" />
        </mxCell>
        <mxCell id="1d41M1mvJh5Ujd5rTAgr-102" value="&lt;span data-olk-copy-source=&quot;MessageBody&quot;&gt;&lt;font style=&quot;font-size: 11px;&quot;&gt;Presentation to Stakeholders&amp;nbsp;&lt;/font&gt;&lt;/span&gt;&lt;div&gt;&lt;span data-olk-copy-source=&quot;MessageBody&quot;&gt;&lt;font style=&quot;font-size: 11px;&quot;&gt;(R25,000)&lt;/font&gt;&lt;/span&gt;&lt;/div&gt;" style="swimlane;whiteSpace=wrap;html=1;startSize=40;fillColor=#ffcc99;strokeColor=#36393d;" parent="1" vertex="1">
          <mxGeometry x="1380" y="1040" width="130" height="80" as="geometry" />
        </mxCell>
        <mxCell id="1d41M1mvJh5Ujd5rTAgr-103" value="&lt;i&gt;Josh&lt;/i&gt;" style="text;html=1;align=center;verticalAlign=middle;resizable=0;points=[];autosize=1;strokeColor=none;fillColor=none;" parent="1d41M1mvJh5Ujd5rTAgr-102" vertex="1">
          <mxGeometry x="40" y="40" width="50" height="30" as="geometry" />
        </mxCell>
        <mxCell id="1d41M1mvJh5Ujd5rTAgr-104" value="&lt;span data-olk-copy-source=&quot;MessageBody&quot;&gt;Executive Summary (R40,000)&lt;/span&gt;" style="swimlane;whiteSpace=wrap;html=1;startSize=40;fillColor=#ffcc99;strokeColor=#36393d;" parent="1" vertex="1">
          <mxGeometry x="1460" y="840" width="130" height="80" as="geometry" />
        </mxCell>
        <mxCell id="1d41M1mvJh5Ujd5rTAgr-105" value="&lt;i&gt;Yusuf&lt;/i&gt;" style="text;html=1;align=center;verticalAlign=middle;resizable=0;points=[];autosize=1;strokeColor=none;fillColor=none;" parent="1d41M1mvJh5Ujd5rTAgr-104" vertex="1">
          <mxGeometry x="40" y="40" width="50" height="30" as="geometry" />
        </mxCell>
        <mxCell id="1d41M1mvJh5Ujd5rTAgr-106" value="&lt;span data-olk-copy-source=&quot;MessageBody&quot;&gt;&lt;font style=&quot;font-size: 10px;&quot;&gt;Technical Documentation (R40,000)&lt;/font&gt;&lt;/span&gt;" style="swimlane;whiteSpace=wrap;html=1;startSize=40;fillColor=#ffcc99;strokeColor=#36393d;" parent="1" vertex="1">
          <mxGeometry x="1610" y="840" width="130" height="80" as="geometry" />
        </mxCell>
        <mxCell id="1d41M1mvJh5Ujd5rTAgr-107" value="&lt;i&gt;Liam&lt;/i&gt;" style="text;html=1;align=center;verticalAlign=middle;resizable=0;points=[];autosize=1;strokeColor=none;fillColor=none;" parent="1d41M1mvJh5Ujd5rTAgr-106" vertex="1">
          <mxGeometry x="40" y="40" width="50" height="30" as="geometry" />
        </mxCell>
        <mxCell id="1d41M1mvJh5Ujd5rTAgr-108" value="&lt;span data-olk-copy-source=&quot;MessageBody&quot;&gt;Financial Report (R40,000)&lt;/span&gt;" style="swimlane;whiteSpace=wrap;html=1;startSize=40;fillColor=#ffcc99;strokeColor=#36393d;" parent="1" vertex="1">
          <mxGeometry x="1760" y="840" width="140" height="80" as="geometry" />
        </mxCell>
        <mxCell id="1d41M1mvJh5Ujd5rTAgr-109" value="&lt;i&gt;Shaquille&lt;/i&gt;" style="text;html=1;align=center;verticalAlign=middle;resizable=0;points=[];autosize=1;strokeColor=none;fillColor=none;" parent="1d41M1mvJh5Ujd5rTAgr-108" vertex="1">
          <mxGeometry x="30" y="40" width="70" height="30" as="geometry" />
        </mxCell>
        <mxCell id="1d41M1mvJh5Ujd5rTAgr-110" value="&lt;span data-olk-copy-source=&quot;MessageBody&quot;&gt;Publish on App Stores&amp;nbsp;&lt;/span&gt;&lt;div&gt;&lt;span data-olk-copy-source=&quot;MessageBody&quot;&gt;(R30,000)&lt;/span&gt;&lt;/div&gt;" style="swimlane;whiteSpace=wrap;html=1;startSize=40;fillColor=#ffcc99;strokeColor=#36393d;" parent="1" vertex="1">
          <mxGeometry x="1850" y="1040" width="130" height="80" as="geometry" />
        </mxCell>
        <mxCell id="1d41M1mvJh5Ujd5rTAgr-111" value="&lt;i&gt;Josh&lt;/i&gt;" style="text;html=1;align=center;verticalAlign=middle;resizable=0;points=[];autosize=1;strokeColor=none;fillColor=none;" parent="1d41M1mvJh5Ujd5rTAgr-110" vertex="1">
          <mxGeometry x="40" y="40" width="50" height="30" as="geometry" />
        </mxCell>
        <mxCell id="1d41M1mvJh5Ujd5rTAgr-112" value="&lt;span data-olk-copy-source=&quot;MessageBody&quot;&gt;Social Media Campaign&amp;nbsp;&lt;/span&gt;&lt;div&gt;&lt;span data-olk-copy-source=&quot;MessageBody&quot;&gt;(R30,000)&lt;/span&gt;&lt;/div&gt;" style="swimlane;whiteSpace=wrap;html=1;startSize=40;fillColor=#ffcc99;strokeColor=#36393d;" parent="1" vertex="1">
          <mxGeometry x="2000" y="1040" width="130" height="80" as="geometry" />
        </mxCell>
        <mxCell id="1d41M1mvJh5Ujd5rTAgr-113" value="&lt;i&gt;Shaquille&lt;/i&gt;" style="text;html=1;align=center;verticalAlign=middle;resizable=0;points=[];autosize=1;strokeColor=none;fillColor=none;" parent="1d41M1mvJh5Ujd5rTAgr-112" vertex="1">
          <mxGeometry x="30" y="40" width="70" height="30" as="geometry" />
        </mxCell>
        <mxCell id="1d41M1mvJh5Ujd5rTAgr-114" value="&lt;span data-olk-copy-source=&quot;MessageBody&quot;&gt;Customer Support Setup&amp;nbsp;&lt;/span&gt;&lt;div&gt;&lt;span data-olk-copy-source=&quot;MessageBody&quot;&gt;(R20,000)&lt;/span&gt;&lt;/div&gt;" style="swimlane;whiteSpace=wrap;html=1;startSize=40;fillColor=#ffcc99;strokeColor=#36393d;" parent="1" vertex="1">
          <mxGeometry x="2150" y="1040" width="140" height="80" as="geometry" />
        </mxCell>
        <mxCell id="1d41M1mvJh5Ujd5rTAgr-115" value="&lt;i&gt;Yusuf&lt;/i&gt;" style="text;html=1;align=center;verticalAlign=middle;resizable=0;points=[];autosize=1;strokeColor=none;fillColor=none;" parent="1d41M1mvJh5Ujd5rTAgr-114" vertex="1">
          <mxGeometry x="40" y="40" width="50" height="30" as="geometry" />
        </mxCell>
        <mxCell id="1d41M1mvJh5Ujd5rTAgr-373" value="5.2.3" style="text;html=1;align=center;verticalAlign=middle;whiteSpace=wrap;rounded=0;" parent="1d41M1mvJh5Ujd5rTAgr-114" vertex="1">
          <mxGeometry x="80" y="-20" width="60" height="30" as="geometry" />
        </mxCell>
        <mxCell id="1d41M1mvJh5Ujd5rTAgr-116" value="&lt;span data-olk-copy-source=&quot;MessageBody&quot;&gt;&amp;nbsp;Gather Post-Launch Feedback&amp;nbsp;&lt;/span&gt;&lt;div&gt;&lt;span data-olk-copy-source=&quot;MessageBody&quot;&gt;(R20,000)&lt;/span&gt;&lt;/div&gt;" style="swimlane;whiteSpace=wrap;html=1;startSize=40;fillColor=#ffcc99;strokeColor=#36393d;" parent="1" vertex="1">
          <mxGeometry x="2270" y="840" width="130" height="80" as="geometry" />
        </mxCell>
        <mxCell id="1d41M1mvJh5Ujd5rTAgr-117" value="&lt;i&gt;Shaquille&lt;/i&gt;" style="text;html=1;align=center;verticalAlign=middle;resizable=0;points=[];autosize=1;strokeColor=none;fillColor=none;" parent="1d41M1mvJh5Ujd5rTAgr-116" vertex="1">
          <mxGeometry x="30" y="40" width="70" height="30" as="geometry" />
        </mxCell>
        <mxCell id="1d41M1mvJh5Ujd5rTAgr-118" value="&lt;span data-olk-copy-source=&quot;MessageBody&quot;&gt;&lt;font style=&quot;font-size: 11px;&quot;&gt;Lessons Learned Workshop&amp;nbsp;&lt;/font&gt;&lt;/span&gt;&lt;div&gt;&lt;span data-olk-copy-source=&quot;MessageBody&quot;&gt;&lt;font style=&quot;font-size: 11px;&quot;&gt;(R20,000)&lt;/font&gt;&lt;/span&gt;&lt;/div&gt;" style="swimlane;whiteSpace=wrap;html=1;startSize=40;fillColor=#ffcc99;strokeColor=#36393d;" parent="1" vertex="1">
          <mxGeometry x="2420" y="840" width="130" height="80" as="geometry" />
        </mxCell>
        <mxCell id="1d41M1mvJh5Ujd5rTAgr-119" value="&lt;i&gt;Liam&lt;/i&gt;" style="text;html=1;align=center;verticalAlign=middle;resizable=0;points=[];autosize=1;strokeColor=none;fillColor=none;" parent="1d41M1mvJh5Ujd5rTAgr-118" vertex="1">
          <mxGeometry x="40" y="40" width="50" height="30" as="geometry" />
        </mxCell>
        <mxCell id="1d41M1mvJh5Ujd5rTAgr-120" value="&lt;div style=&quot;border: 0px; font-style: inherit; font-variant: inherit; font-weight: inherit; font-stretch: inherit; line-height: inherit; font-family: inherit; font-optical-sizing: inherit; font-size-adjust: inherit; font-kerning: inherit; font-feature-settings: inherit; font-variation-settings: inherit; margin: 0px; padding: 0px; vertical-align: baseline;&quot; data-olk-copy-source=&quot;MessageBody&quot;&gt;&lt;font style=&quot;font-size: 10px;&quot;&gt;Archive Project Records (R10,000)&lt;/font&gt;&lt;/div&gt;" style="swimlane;whiteSpace=wrap;html=1;startSize=40;fillColor=#ffcc99;strokeColor=#36393d;" parent="1" vertex="1">
          <mxGeometry x="2570" y="840" width="130" height="80" as="geometry" />
        </mxCell>
        <mxCell id="1d41M1mvJh5Ujd5rTAgr-121" value="&lt;i&gt;Josh&lt;/i&gt;" style="text;html=1;align=center;verticalAlign=middle;resizable=0;points=[];autosize=1;strokeColor=none;fillColor=none;" parent="1d41M1mvJh5Ujd5rTAgr-120" vertex="1">
          <mxGeometry x="40" y="40" width="50" height="30" as="geometry" />
        </mxCell>
        <mxCell id="1d41M1mvJh5Ujd5rTAgr-129" value="&lt;span data-olk-copy-source=&quot;MessageBody&quot;&gt;Install Smart Meters (R50,000)&lt;/span&gt;" style="swimlane;whiteSpace=wrap;html=1;startSize=40;fillColor=#ffcc99;strokeColor=#36393d;" parent="1" vertex="1">
          <mxGeometry x="-2160" y="1040" width="130" height="80" as="geometry" />
        </mxCell>
        <mxCell id="1d41M1mvJh5Ujd5rTAgr-130" value="&lt;i&gt;Liam&lt;/i&gt;" style="text;html=1;align=center;verticalAlign=middle;resizable=0;points=[];autosize=1;strokeColor=none;fillColor=none;" parent="1d41M1mvJh5Ujd5rTAgr-129" vertex="1">
          <mxGeometry x="40" y="40" width="50" height="30" as="geometry" />
        </mxCell>
        <mxCell id="1d41M1mvJh5Ujd5rTAgr-133" value="&lt;span data-olk-copy-source=&quot;MessageBody&quot;&gt;Test Meter Connectivity (R50,000)&lt;/span&gt;" style="swimlane;whiteSpace=wrap;html=1;startSize=40;fillColor=#ffcc99;strokeColor=#36393d;" parent="1" vertex="1">
          <mxGeometry x="-2010" y="1040" width="140" height="80" as="geometry" />
        </mxCell>
        <mxCell id="1d41M1mvJh5Ujd5rTAgr-134" value="&lt;i&gt;Josh&lt;/i&gt;" style="text;html=1;align=center;verticalAlign=middle;resizable=0;points=[];autosize=1;strokeColor=none;fillColor=none;" parent="1d41M1mvJh5Ujd5rTAgr-133" vertex="1">
          <mxGeometry x="45" y="40" width="50" height="30" as="geometry" />
        </mxCell>
        <mxCell id="1d41M1mvJh5Ujd5rTAgr-135" value="&lt;span data-olk-copy-source=&quot;MessageBody&quot;&gt;Firmware Syncing (R70,000)&lt;/span&gt;" style="swimlane;whiteSpace=wrap;html=1;startSize=40;fillColor=#ffcc99;strokeColor=#36393d;" parent="1" vertex="1">
          <mxGeometry x="-1910" y="810" width="130" height="80" as="geometry" />
        </mxCell>
        <mxCell id="1d41M1mvJh5Ujd5rTAgr-136" value="&lt;i&gt;Shaquille&lt;/i&gt;" style="text;html=1;align=center;verticalAlign=middle;resizable=0;points=[];autosize=1;strokeColor=none;fillColor=none;" parent="1d41M1mvJh5Ujd5rTAgr-135" vertex="1">
          <mxGeometry x="30" y="40" width="70" height="30" as="geometry" />
        </mxCell>
        <mxCell id="1d41M1mvJh5Ujd5rTAgr-137" value="&lt;span data-olk-copy-source=&quot;MessageBody&quot;&gt;Data Transmission (R70,000)&lt;/span&gt;" style="swimlane;whiteSpace=wrap;html=1;startSize=40;fillColor=#ffcc99;strokeColor=#36393d;" parent="1" vertex="1">
          <mxGeometry x="-1760" y="810" width="130" height="80" as="geometry" />
        </mxCell>
        <mxCell id="1d41M1mvJh5Ujd5rTAgr-138" value="&lt;i&gt;Liam&lt;/i&gt;" style="text;html=1;align=center;verticalAlign=middle;resizable=0;points=[];autosize=1;strokeColor=none;fillColor=none;" parent="1d41M1mvJh5Ujd5rTAgr-137" vertex="1">
          <mxGeometry x="40" y="40" width="50" height="30" as="geometry" />
        </mxCell>
        <mxCell id="1d41M1mvJh5Ujd5rTAgr-139" value="&lt;span data-olk-copy-source=&quot;MessageBody&quot;&gt;Error Detection System (R60,000)&lt;/span&gt;" style="swimlane;whiteSpace=wrap;html=1;startSize=40;fillColor=#ffcc99;strokeColor=#36393d;" parent="1" vertex="1">
          <mxGeometry x="-1610" y="810" width="140" height="80" as="geometry" />
        </mxCell>
        <mxCell id="1d41M1mvJh5Ujd5rTAgr-140" value="&lt;i&gt;Yusuf&lt;/i&gt;" style="text;html=1;align=center;verticalAlign=middle;resizable=0;points=[];autosize=1;strokeColor=none;fillColor=none;" parent="1d41M1mvJh5Ujd5rTAgr-139" vertex="1">
          <mxGeometry x="40" y="40" width="50" height="30" as="geometry" />
        </mxCell>
        <mxCell id="1d41M1mvJh5Ujd5rTAgr-141" value="&lt;span data-olk-copy-source=&quot;MessageBody&quot;&gt;User Support Hotline Setup&amp;nbsp;&lt;/span&gt;&lt;div&gt;&lt;span data-olk-copy-source=&quot;MessageBody&quot;&gt;(R30,000)&lt;/span&gt;&lt;/div&gt;" style="swimlane;whiteSpace=wrap;html=1;startSize=40;fillColor=#ffcc99;strokeColor=#36393d;" parent="1" vertex="1">
          <mxGeometry x="-1480" y="1040" width="130" height="80" as="geometry" />
        </mxCell>
        <mxCell id="1d41M1mvJh5Ujd5rTAgr-142" value="&lt;i&gt;Josh&lt;/i&gt;" style="text;html=1;align=center;verticalAlign=middle;resizable=0;points=[];autosize=1;strokeColor=none;fillColor=none;" parent="1d41M1mvJh5Ujd5rTAgr-141" vertex="1">
          <mxGeometry x="40" y="40" width="50" height="30" as="geometry" />
        </mxCell>
        <mxCell id="1d41M1mvJh5Ujd5rTAgr-143" value="&lt;span data-olk-copy-source=&quot;MessageBody&quot;&gt;Training Materials (R40,000)&lt;/span&gt;" style="swimlane;whiteSpace=wrap;html=1;startSize=40;fillColor=#ffcc99;strokeColor=#36393d;" parent="1" vertex="1">
          <mxGeometry x="-1330" y="1040" width="130" height="80" as="geometry" />
        </mxCell>
        <mxCell id="1d41M1mvJh5Ujd5rTAgr-144" value="&lt;i&gt;Liam&lt;/i&gt;" style="text;html=1;align=center;verticalAlign=middle;resizable=0;points=[];autosize=1;strokeColor=none;fillColor=none;" parent="1d41M1mvJh5Ujd5rTAgr-143" vertex="1">
          <mxGeometry x="40" y="40" width="50" height="30" as="geometry" />
        </mxCell>
        <mxCell id="1d41M1mvJh5Ujd5rTAgr-145" value="&lt;span data-olk-copy-source=&quot;MessageBody&quot;&gt;Troubleshooting Guide&amp;nbsp;&lt;/span&gt;&lt;div&gt;&lt;span data-olk-copy-source=&quot;MessageBody&quot;&gt;(R30,000)&lt;/span&gt;&lt;/div&gt;" style="swimlane;whiteSpace=wrap;html=1;startSize=40;fillColor=#ffcc99;strokeColor=#36393d;" parent="1" vertex="1">
          <mxGeometry x="-1180" y="1040" width="130" height="80" as="geometry" />
        </mxCell>
        <mxCell id="1d41M1mvJh5Ujd5rTAgr-146" value="&lt;i&gt;Shaquille&lt;/i&gt;" style="text;html=1;align=center;verticalAlign=middle;resizable=0;points=[];autosize=1;strokeColor=none;fillColor=none;" parent="1d41M1mvJh5Ujd5rTAgr-145" vertex="1">
          <mxGeometry x="30" y="40" width="70" height="30" as="geometry" />
        </mxCell>
        <mxCell id="1d41M1mvJh5Ujd5rTAgr-325" value="2.3.3" style="text;html=1;align=center;verticalAlign=middle;whiteSpace=wrap;rounded=0;" parent="1d41M1mvJh5Ujd5rTAgr-145" vertex="1">
          <mxGeometry x="70" y="-20" width="60" height="30" as="geometry" />
        </mxCell>
        <mxCell id="1d41M1mvJh5Ujd5rTAgr-147" value="&lt;span data-olk-copy-source=&quot;MessageBody&quot;&gt;&amp;nbsp;Purchase Smart Meters&amp;nbsp;&lt;/span&gt;&lt;div&gt;&lt;span data-olk-copy-source=&quot;MessageBody&quot;&gt;(R100,000)&lt;/span&gt;&lt;/div&gt;" style="swimlane;whiteSpace=wrap;html=1;startSize=40;fillColor=#ffcc99;strokeColor=#36393d;" parent="1" vertex="1">
          <mxGeometry x="-2310" y="1040" width="130" height="80" as="geometry" />
        </mxCell>
        <mxCell id="1d41M1mvJh5Ujd5rTAgr-148" value="&lt;i&gt;Shaquille&lt;/i&gt;" style="text;html=1;align=center;verticalAlign=middle;resizable=0;points=[];autosize=1;strokeColor=none;fillColor=none;" parent="1d41M1mvJh5Ujd5rTAgr-147" vertex="1">
          <mxGeometry x="30" y="40" width="70" height="30" as="geometry" />
        </mxCell>
        <mxCell id="1d41M1mvJh5Ujd5rTAgr-149" value="&lt;span data-olk-copy-source=&quot;MessageBody&quot;&gt;UI/UX Design (R120,000)&amp;nbsp;&lt;/span&gt;" style="swimlane;whiteSpace=wrap;html=1;startSize=40;fillColor=#cdeb8b;strokeColor=#36393d;" parent="1" vertex="1">
          <mxGeometry x="-3380" y="640" width="130" height="80" as="geometry" />
        </mxCell>
        <mxCell id="1d41M1mvJh5Ujd5rTAgr-150" value="&lt;i&gt;Shaquille&lt;/i&gt;" style="text;html=1;align=center;verticalAlign=middle;resizable=0;points=[];autosize=1;strokeColor=none;fillColor=none;" parent="1d41M1mvJh5Ujd5rTAgr-149" vertex="1">
          <mxGeometry x="30" y="40" width="70" height="30" as="geometry" />
        </mxCell>
        <mxCell id="1d41M1mvJh5Ujd5rTAgr-151" value="&lt;span data-olk-copy-source=&quot;MessageBody&quot;&gt;Bug Fixing &amp;amp; Validation&amp;nbsp;&lt;/span&gt;&lt;div&gt;&lt;span data-olk-copy-source=&quot;MessageBody&quot;&gt;(R25,000)&lt;/span&gt;&lt;/div&gt;" style="swimlane;whiteSpace=wrap;html=1;startSize=40;fillColor=#ffcc99;strokeColor=#36393d;" parent="1" vertex="1">
          <mxGeometry x="-2469" y="810" width="130" height="80" as="geometry" />
        </mxCell>
        <mxCell id="1d41M1mvJh5Ujd5rTAgr-152" value="&lt;i&gt;Liam&lt;/i&gt;" style="text;html=1;align=center;verticalAlign=middle;resizable=0;points=[];autosize=1;strokeColor=none;fillColor=none;" parent="1d41M1mvJh5Ujd5rTAgr-151" vertex="1">
          <mxGeometry x="40" y="40" width="50" height="30" as="geometry" />
        </mxCell>
        <mxCell id="1d41M1mvJh5Ujd5rTAgr-153" value="&lt;span data-olk-copy-source=&quot;MessageBody&quot;&gt;UI Components (R40,000)&lt;/span&gt;" style="swimlane;whiteSpace=wrap;html=1;startSize=40;fillColor=#ffcc99;strokeColor=#36393d;" parent="1" vertex="1">
          <mxGeometry x="-3380" y="810" width="130" height="80" as="geometry" />
        </mxCell>
        <mxCell id="1d41M1mvJh5Ujd5rTAgr-154" value="&lt;i&gt;Yusuf&lt;/i&gt;" style="text;html=1;align=center;verticalAlign=middle;resizable=0;points=[];autosize=1;strokeColor=none;fillColor=none;" parent="1d41M1mvJh5Ujd5rTAgr-153" vertex="1">
          <mxGeometry x="40" y="40" width="50" height="30" as="geometry" />
        </mxCell>
        <mxCell id="1d41M1mvJh5Ujd5rTAgr-155" value="&lt;span data-olk-copy-source=&quot;MessageBody&quot;&gt;User Testing Sessions (R40,000)&lt;/span&gt;" style="swimlane;whiteSpace=wrap;html=1;startSize=40;fillColor=#ffcc99;strokeColor=#36393d;" parent="1" vertex="1">
          <mxGeometry x="-3230" y="810" width="130" height="80" as="geometry" />
        </mxCell>
        <mxCell id="1d41M1mvJh5Ujd5rTAgr-156" value="&lt;i&gt;Liam&lt;/i&gt;" style="text;html=1;align=center;verticalAlign=middle;resizable=0;points=[];autosize=1;strokeColor=none;fillColor=none;" parent="1d41M1mvJh5Ujd5rTAgr-155" vertex="1">
          <mxGeometry x="40" y="40" width="50" height="30" as="geometry" />
        </mxCell>
        <mxCell id="1d41M1mvJh5Ujd5rTAgr-157" value="&lt;span data-olk-copy-source=&quot;MessageBody&quot;&gt;&amp;nbsp;Backend API Integration&amp;nbsp;&lt;/span&gt;&lt;div&gt;&lt;span data-olk-copy-source=&quot;MessageBody&quot;&gt;(R80,000)&lt;/span&gt;&lt;/div&gt;" style="swimlane;whiteSpace=wrap;html=1;startSize=40;fillColor=#ffcc99;strokeColor=#36393d;" parent="1" vertex="1">
          <mxGeometry x="-3150" y="1030" width="130" height="80" as="geometry" />
        </mxCell>
        <mxCell id="1d41M1mvJh5Ujd5rTAgr-158" value="&lt;i&gt;Shaquille&lt;/i&gt;" style="text;html=1;align=center;verticalAlign=middle;resizable=0;points=[];autosize=1;strokeColor=none;fillColor=none;" parent="1d41M1mvJh5Ujd5rTAgr-157" vertex="1">
          <mxGeometry x="30" y="40" width="70" height="30" as="geometry" />
        </mxCell>
        <mxCell id="1d41M1mvJh5Ujd5rTAgr-159" value="&lt;span data-olk-copy-source=&quot;MessageBody&quot;&gt;&lt;font style=&quot;font-size: 11px;&quot;&gt;Database Connectivity (R60,000)&lt;/font&gt;&lt;/span&gt;" style="swimlane;whiteSpace=wrap;html=1;startSize=40;fillColor=#ffcc99;strokeColor=#36393d;" parent="1" vertex="1">
          <mxGeometry x="-3000" y="1030" width="130" height="80" as="geometry" />
        </mxCell>
        <mxCell id="1d41M1mvJh5Ujd5rTAgr-160" value="&lt;i&gt;Josh&lt;/i&gt;" style="text;html=1;align=center;verticalAlign=middle;resizable=0;points=[];autosize=1;strokeColor=none;fillColor=none;" parent="1d41M1mvJh5Ujd5rTAgr-159" vertex="1">
          <mxGeometry x="40" y="40" width="50" height="30" as="geometry" />
        </mxCell>
        <mxCell id="1d41M1mvJh5Ujd5rTAgr-161" value="&lt;span data-olk-copy-source=&quot;MessageBody&quot;&gt;&amp;nbsp;Offline Functionality (R60,000)&lt;/span&gt;" style="swimlane;whiteSpace=wrap;html=1;startSize=40;fillColor=#ffcc99;strokeColor=#36393d;" parent="1" vertex="1">
          <mxGeometry x="-2850" y="1030" width="140" height="80" as="geometry" />
        </mxCell>
        <mxCell id="1d41M1mvJh5Ujd5rTAgr-162" value="&lt;i&gt;Yusuf&lt;/i&gt;" style="text;html=1;align=center;verticalAlign=middle;resizable=0;points=[];autosize=1;strokeColor=none;fillColor=none;" parent="1d41M1mvJh5Ujd5rTAgr-161" vertex="1">
          <mxGeometry x="45" y="40" width="50" height="30" as="geometry" />
        </mxCell>
        <mxCell id="1d41M1mvJh5Ujd5rTAgr-163" value="&lt;span data-olk-copy-source=&quot;MessageBody&quot;&gt;Functional Testing (R30,000)&lt;/span&gt;" style="swimlane;whiteSpace=wrap;html=1;startSize=40;fillColor=#ffcc99;strokeColor=#36393d;" parent="1" vertex="1">
          <mxGeometry x="-2770" y="810" width="130" height="80" as="geometry" />
        </mxCell>
        <mxCell id="1d41M1mvJh5Ujd5rTAgr-164" value="&lt;i&gt;Yusuf&lt;/i&gt;" style="text;html=1;align=center;verticalAlign=middle;resizable=0;points=[];autosize=1;strokeColor=none;fillColor=none;" parent="1d41M1mvJh5Ujd5rTAgr-163" vertex="1">
          <mxGeometry x="40" y="40" width="50" height="30" as="geometry" />
        </mxCell>
        <mxCell id="1d41M1mvJh5Ujd5rTAgr-165" value="&lt;span data-olk-copy-source=&quot;MessageBody&quot;&gt;Cross-Platform Testing (R25,000)&lt;/span&gt;" style="swimlane;whiteSpace=wrap;html=1;startSize=40;fillColor=#ffcc99;strokeColor=#36393d;" parent="1" vertex="1">
          <mxGeometry x="-2620" y="810" width="140" height="80" as="geometry" />
        </mxCell>
        <mxCell id="1d41M1mvJh5Ujd5rTAgr-166" value="&lt;i&gt;Josh&lt;/i&gt;" style="text;html=1;align=center;verticalAlign=middle;resizable=0;points=[];autosize=1;strokeColor=none;fillColor=none;" parent="1d41M1mvJh5Ujd5rTAgr-165" vertex="1">
          <mxGeometry x="45" y="40" width="50" height="30" as="geometry" />
        </mxCell>
        <mxCell id="1d41M1mvJh5Ujd5rTAgr-168" value="&lt;span data-olk-copy-source=&quot;MessageBody&quot;&gt;Wireframes &amp;amp; Prototypes&amp;nbsp;&lt;/span&gt;&lt;div&gt;&lt;span data-olk-copy-source=&quot;MessageBody&quot;&gt;(R40,000)&lt;/span&gt;&lt;/div&gt;" style="swimlane;whiteSpace=wrap;html=1;startSize=40;fillColor=#ffcc99;strokeColor=#36393d;" parent="1" vertex="1">
          <mxGeometry x="-3530" y="810" width="130" height="80" as="geometry" />
        </mxCell>
        <mxCell id="1d41M1mvJh5Ujd5rTAgr-169" value="&lt;i&gt;Shaquille&lt;/i&gt;" style="text;html=1;align=center;verticalAlign=middle;resizable=0;points=[];autosize=1;strokeColor=none;fillColor=none;" parent="1d41M1mvJh5Ujd5rTAgr-168" vertex="1">
          <mxGeometry x="30" y="40" width="70" height="30" as="geometry" />
        </mxCell>
        <mxCell id="1d41M1mvJh5Ujd5rTAgr-202" value="" style="endArrow=none;html=1;rounded=0;" parent="1" edge="1">
          <mxGeometry width="50" height="50" relative="1" as="geometry">
            <mxPoint x="-377" y="440" as="sourcePoint" />
            <mxPoint x="-377" y="240" as="targetPoint" />
          </mxGeometry>
        </mxCell>
        <mxCell id="1d41M1mvJh5Ujd5rTAgr-203" value="" style="endArrow=none;html=1;rounded=0;" parent="1" edge="1">
          <mxGeometry width="50" height="50" relative="1" as="geometry">
            <mxPoint x="-1695.29" y="440" as="sourcePoint" />
            <mxPoint x="-1695.29" y="340" as="targetPoint" />
          </mxGeometry>
        </mxCell>
        <mxCell id="1d41M1mvJh5Ujd5rTAgr-204" value="" style="endArrow=none;html=1;rounded=0;" parent="1" edge="1">
          <mxGeometry width="50" height="50" relative="1" as="geometry">
            <mxPoint x="-2940" y="440" as="sourcePoint" />
            <mxPoint x="-2940" y="340" as="targetPoint" />
          </mxGeometry>
        </mxCell>
        <mxCell id="1d41M1mvJh5Ujd5rTAgr-205" value="" style="endArrow=none;html=1;rounded=0;" parent="1" edge="1">
          <mxGeometry width="50" height="50" relative="1" as="geometry">
            <mxPoint x="860" y="440" as="sourcePoint" />
            <mxPoint x="860" y="340" as="targetPoint" />
          </mxGeometry>
        </mxCell>
        <mxCell id="1d41M1mvJh5Ujd5rTAgr-206" value="" style="endArrow=none;html=1;rounded=0;exitX=0.538;exitY=0;exitDx=0;exitDy=0;exitPerimeter=0;" parent="1" source="1d41M1mvJh5Ujd5rTAgr-21" edge="1">
          <mxGeometry width="50" height="50" relative="1" as="geometry">
            <mxPoint x="2064.81" y="440" as="sourcePoint" />
            <mxPoint x="2060" y="340" as="targetPoint" />
          </mxGeometry>
        </mxCell>
        <mxCell id="1d41M1mvJh5Ujd5rTAgr-207" value="" style="endArrow=none;html=1;rounded=0;" parent="1" edge="1">
          <mxGeometry width="50" height="50" relative="1" as="geometry">
            <mxPoint x="-2940" y="340" as="sourcePoint" />
            <mxPoint x="2060" y="340" as="targetPoint" />
          </mxGeometry>
        </mxCell>
        <mxCell id="1d41M1mvJh5Ujd5rTAgr-210" value="" style="endArrow=none;html=1;rounded=0;exitX=0.5;exitY=0;exitDx=0;exitDy=0;entryX=0.5;entryY=1;entryDx=0;entryDy=0;" parent="1" edge="1">
          <mxGeometry width="50" height="50" relative="1" as="geometry">
            <mxPoint x="-2935.2900000000004" y="640" as="sourcePoint" />
            <mxPoint x="-2935.2900000000004" y="520" as="targetPoint" />
          </mxGeometry>
        </mxCell>
        <mxCell id="1d41M1mvJh5Ujd5rTAgr-211" value="" style="endArrow=none;html=1;rounded=0;" parent="1" edge="1">
          <mxGeometry width="50" height="50" relative="1" as="geometry">
            <mxPoint x="-3320" y="640" as="sourcePoint" />
            <mxPoint x="-3320" y="580" as="targetPoint" />
          </mxGeometry>
        </mxCell>
        <mxCell id="1d41M1mvJh5Ujd5rTAgr-212" value="" style="endArrow=none;html=1;rounded=0;" parent="1" edge="1">
          <mxGeometry width="50" height="50" relative="1" as="geometry">
            <mxPoint x="-2550" y="640" as="sourcePoint" />
            <mxPoint x="-2550" y="580" as="targetPoint" />
          </mxGeometry>
        </mxCell>
        <mxCell id="1d41M1mvJh5Ujd5rTAgr-213" value="" style="endArrow=none;html=1;rounded=0;" parent="1" edge="1">
          <mxGeometry width="50" height="50" relative="1" as="geometry">
            <mxPoint x="-3320" y="580" as="sourcePoint" />
            <mxPoint x="-2550" y="580" as="targetPoint" />
          </mxGeometry>
        </mxCell>
        <mxCell id="1d41M1mvJh5Ujd5rTAgr-214" value="" style="endArrow=none;html=1;rounded=0;entryX=0.5;entryY=1;entryDx=0;entryDy=0;exitX=0.5;exitY=0;exitDx=0;exitDy=0;" parent="1" source="1d41M1mvJh5Ujd5rTAgr-35" edge="1">
          <mxGeometry width="50" height="50" relative="1" as="geometry">
            <mxPoint x="-1700" y="640" as="sourcePoint" />
            <mxPoint x="-1695" y="520" as="targetPoint" />
          </mxGeometry>
        </mxCell>
        <mxCell id="1d41M1mvJh5Ujd5rTAgr-215" value="" style="endArrow=none;html=1;rounded=0;" parent="1" edge="1">
          <mxGeometry width="50" height="50" relative="1" as="geometry">
            <mxPoint x="-2100" y="640" as="sourcePoint" />
            <mxPoint x="-2100" y="580" as="targetPoint" />
          </mxGeometry>
        </mxCell>
        <mxCell id="1d41M1mvJh5Ujd5rTAgr-216" value="" style="endArrow=none;html=1;rounded=0;" parent="1" edge="1">
          <mxGeometry width="50" height="50" relative="1" as="geometry">
            <mxPoint x="-1260" y="640" as="sourcePoint" />
            <mxPoint x="-1260" y="580" as="targetPoint" />
          </mxGeometry>
        </mxCell>
        <mxCell id="1d41M1mvJh5Ujd5rTAgr-217" value="" style="endArrow=none;html=1;rounded=0;" parent="1" edge="1">
          <mxGeometry width="50" height="50" relative="1" as="geometry">
            <mxPoint x="-2100" y="580" as="sourcePoint" />
            <mxPoint x="-1260" y="580" as="targetPoint" />
          </mxGeometry>
        </mxCell>
        <mxCell id="1d41M1mvJh5Ujd5rTAgr-219" value="" style="endArrow=none;html=1;rounded=0;exitX=0.46;exitY=0.012;exitDx=0;exitDy=0;exitPerimeter=0;" parent="1" source="1d41M1mvJh5Ujd5rTAgr-47" edge="1">
          <mxGeometry width="50" height="50" relative="1" as="geometry">
            <mxPoint x="-430" y="570" as="sourcePoint" />
            <mxPoint x="-380" y="520" as="targetPoint" />
          </mxGeometry>
        </mxCell>
        <mxCell id="1d41M1mvJh5Ujd5rTAgr-220" value="" style="endArrow=none;html=1;rounded=0;" parent="1" edge="1">
          <mxGeometry width="50" height="50" relative="1" as="geometry">
            <mxPoint x="-800" y="640" as="sourcePoint" />
            <mxPoint x="-800" y="580" as="targetPoint" />
          </mxGeometry>
        </mxCell>
        <mxCell id="1d41M1mvJh5Ujd5rTAgr-221" value="" style="endArrow=none;html=1;rounded=0;" parent="1" edge="1">
          <mxGeometry width="50" height="50" relative="1" as="geometry">
            <mxPoint x="20" y="640" as="sourcePoint" />
            <mxPoint x="20" y="580" as="targetPoint" />
          </mxGeometry>
        </mxCell>
        <mxCell id="1d41M1mvJh5Ujd5rTAgr-222" value="" style="endArrow=none;html=1;rounded=0;" parent="1" edge="1">
          <mxGeometry width="50" height="50" relative="1" as="geometry">
            <mxPoint x="-800" y="580" as="sourcePoint" />
            <mxPoint x="20" y="580" as="targetPoint" />
          </mxGeometry>
        </mxCell>
        <mxCell id="1d41M1mvJh5Ujd5rTAgr-223" value="" style="endArrow=none;html=1;rounded=0;" parent="1" edge="1">
          <mxGeometry width="50" height="50" relative="1" as="geometry">
            <mxPoint x="440" y="650" as="sourcePoint" />
            <mxPoint x="440" y="580" as="targetPoint" />
          </mxGeometry>
        </mxCell>
        <mxCell id="1d41M1mvJh5Ujd5rTAgr-224" value="" style="endArrow=none;html=1;rounded=0;" parent="1" edge="1">
          <mxGeometry width="50" height="50" relative="1" as="geometry">
            <mxPoint x="1300" y="650" as="sourcePoint" />
            <mxPoint x="1300" y="580" as="targetPoint" />
          </mxGeometry>
        </mxCell>
        <mxCell id="1d41M1mvJh5Ujd5rTAgr-225" value="" style="endArrow=none;html=1;rounded=0;" parent="1" edge="1">
          <mxGeometry width="50" height="50" relative="1" as="geometry">
            <mxPoint x="860" y="650" as="sourcePoint" />
            <mxPoint x="860" y="520" as="targetPoint" />
          </mxGeometry>
        </mxCell>
        <mxCell id="1d41M1mvJh5Ujd5rTAgr-226" value="" style="endArrow=none;html=1;rounded=0;" parent="1" edge="1">
          <mxGeometry width="50" height="50" relative="1" as="geometry">
            <mxPoint x="440" y="580" as="sourcePoint" />
            <mxPoint x="1300" y="580" as="targetPoint" />
          </mxGeometry>
        </mxCell>
        <mxCell id="1d41M1mvJh5Ujd5rTAgr-227" value="" style="endArrow=none;html=1;rounded=0;" parent="1" edge="1">
          <mxGeometry width="50" height="50" relative="1" as="geometry">
            <mxPoint x="2060" y="650" as="sourcePoint" />
            <mxPoint x="2060" y="520" as="targetPoint" />
          </mxGeometry>
        </mxCell>
        <mxCell id="1d41M1mvJh5Ujd5rTAgr-228" value="" style="endArrow=none;html=1;rounded=0;" parent="1" edge="1">
          <mxGeometry width="50" height="50" relative="1" as="geometry">
            <mxPoint x="1670" y="650" as="sourcePoint" />
            <mxPoint x="1670" y="580" as="targetPoint" />
          </mxGeometry>
        </mxCell>
        <mxCell id="1d41M1mvJh5Ujd5rTAgr-230" value="" style="endArrow=none;html=1;rounded=0;" parent="1" edge="1">
          <mxGeometry width="50" height="50" relative="1" as="geometry">
            <mxPoint x="2490" y="650" as="sourcePoint" />
            <mxPoint x="2490" y="580" as="targetPoint" />
          </mxGeometry>
        </mxCell>
        <mxCell id="1d41M1mvJh5Ujd5rTAgr-231" value="" style="endArrow=none;html=1;rounded=0;" parent="1" edge="1">
          <mxGeometry width="50" height="50" relative="1" as="geometry">
            <mxPoint x="1670" y="580" as="sourcePoint" />
            <mxPoint x="2490" y="580" as="targetPoint" />
          </mxGeometry>
        </mxCell>
        <mxCell id="1d41M1mvJh5Ujd5rTAgr-232" value="" style="endArrow=none;html=1;rounded=0;" parent="1" edge="1">
          <mxGeometry width="50" height="50" relative="1" as="geometry">
            <mxPoint x="-3480.0000000000005" y="810" as="sourcePoint" />
            <mxPoint x="-3480.0000000000005" y="770" as="targetPoint" />
          </mxGeometry>
        </mxCell>
        <mxCell id="1d41M1mvJh5Ujd5rTAgr-233" value="" style="endArrow=none;html=1;rounded=0;" parent="1" edge="1">
          <mxGeometry width="50" height="50" relative="1" as="geometry">
            <mxPoint x="-3160" y="810" as="sourcePoint" />
            <mxPoint x="-3160" y="770" as="targetPoint" />
          </mxGeometry>
        </mxCell>
        <mxCell id="1d41M1mvJh5Ujd5rTAgr-234" value="" style="endArrow=none;html=1;rounded=0;" parent="1" edge="1">
          <mxGeometry width="50" height="50" relative="1" as="geometry">
            <mxPoint x="-3320" y="810" as="sourcePoint" />
            <mxPoint x="-3320" y="720" as="targetPoint" />
          </mxGeometry>
        </mxCell>
        <mxCell id="1d41M1mvJh5Ujd5rTAgr-236" value="" style="endArrow=none;html=1;rounded=0;" parent="1" edge="1">
          <mxGeometry width="50" height="50" relative="1" as="geometry">
            <mxPoint x="-3480" y="770" as="sourcePoint" />
            <mxPoint x="-3160" y="770" as="targetPoint" />
          </mxGeometry>
        </mxCell>
        <mxCell id="1d41M1mvJh5Ujd5rTAgr-237" value="" style="endArrow=none;html=1;rounded=0;entryX=0.5;entryY=1;entryDx=0;entryDy=0;exitX=0.5;exitY=0;exitDx=0;exitDy=0;" parent="1" source="1d41M1mvJh5Ujd5rTAgr-159" target="1d41M1mvJh5Ujd5rTAgr-39" edge="1">
          <mxGeometry width="50" height="50" relative="1" as="geometry">
            <mxPoint x="-2940" y="1030" as="sourcePoint" />
            <mxPoint x="-2890" y="980" as="targetPoint" />
          </mxGeometry>
        </mxCell>
        <mxCell id="1d41M1mvJh5Ujd5rTAgr-238" value="" style="endArrow=none;html=1;rounded=0;" parent="1" edge="1">
          <mxGeometry width="50" height="50" relative="1" as="geometry">
            <mxPoint x="-3080" y="1030" as="sourcePoint" />
            <mxPoint x="-3080" y="980" as="targetPoint" />
          </mxGeometry>
        </mxCell>
        <mxCell id="1d41M1mvJh5Ujd5rTAgr-239" value="" style="endArrow=none;html=1;rounded=0;" parent="1" edge="1">
          <mxGeometry width="50" height="50" relative="1" as="geometry">
            <mxPoint x="-2780" y="1030" as="sourcePoint" />
            <mxPoint x="-2780" y="980" as="targetPoint" />
          </mxGeometry>
        </mxCell>
        <mxCell id="1d41M1mvJh5Ujd5rTAgr-241" value="" style="endArrow=none;html=1;rounded=0;" parent="1" edge="1">
          <mxGeometry width="50" height="50" relative="1" as="geometry">
            <mxPoint x="-3080" y="980" as="sourcePoint" />
            <mxPoint x="-2780" y="980" as="targetPoint" />
          </mxGeometry>
        </mxCell>
        <mxCell id="1d41M1mvJh5Ujd5rTAgr-243" value="" style="endArrow=none;html=1;rounded=0;" parent="1" edge="1">
          <mxGeometry width="50" height="50" relative="1" as="geometry">
            <mxPoint x="-2710" y="810" as="sourcePoint" />
            <mxPoint x="-2710" y="770" as="targetPoint" />
          </mxGeometry>
        </mxCell>
        <mxCell id="1d41M1mvJh5Ujd5rTAgr-244" value="" style="endArrow=none;html=1;rounded=0;entryX=0.5;entryY=1;entryDx=0;entryDy=0;" parent="1" edge="1">
          <mxGeometry width="50" height="50" relative="1" as="geometry">
            <mxPoint x="-2550.36" y="810" as="sourcePoint" />
            <mxPoint x="-2550.36" y="720" as="targetPoint" />
          </mxGeometry>
        </mxCell>
        <mxCell id="1d41M1mvJh5Ujd5rTAgr-245" value="" style="endArrow=none;html=1;rounded=0;" parent="1" edge="1">
          <mxGeometry width="50" height="50" relative="1" as="geometry">
            <mxPoint x="-2400" y="810" as="sourcePoint" />
            <mxPoint x="-2400" y="770" as="targetPoint" />
          </mxGeometry>
        </mxCell>
        <mxCell id="1d41M1mvJh5Ujd5rTAgr-246" value="" style="endArrow=none;html=1;rounded=0;" parent="1" edge="1">
          <mxGeometry width="50" height="50" relative="1" as="geometry">
            <mxPoint x="-2710" y="770" as="sourcePoint" />
            <mxPoint x="-2400" y="770" as="targetPoint" />
          </mxGeometry>
        </mxCell>
        <mxCell id="1d41M1mvJh5Ujd5rTAgr-247" value="" style="endArrow=none;html=1;rounded=0;exitX=0.5;exitY=0;exitDx=0;exitDy=0;entryX=0.5;entryY=1;entryDx=0;entryDy=0;" parent="1" source="1d41M1mvJh5Ujd5rTAgr-129" target="1d41M1mvJh5Ujd5rTAgr-33" edge="1">
          <mxGeometry width="50" height="50" relative="1" as="geometry">
            <mxPoint x="-2140" y="770" as="sourcePoint" />
            <mxPoint x="-2090" y="720" as="targetPoint" />
          </mxGeometry>
        </mxCell>
        <mxCell id="1d41M1mvJh5Ujd5rTAgr-248" value="" style="endArrow=none;html=1;rounded=0;" parent="1" edge="1">
          <mxGeometry width="50" height="50" relative="1" as="geometry">
            <mxPoint x="-2250" y="1040" as="sourcePoint" />
            <mxPoint x="-2250" y="980" as="targetPoint" />
          </mxGeometry>
        </mxCell>
        <mxCell id="1d41M1mvJh5Ujd5rTAgr-249" value="" style="endArrow=none;html=1;rounded=0;" parent="1" edge="1">
          <mxGeometry width="50" height="50" relative="1" as="geometry">
            <mxPoint x="-1940" y="1040" as="sourcePoint" />
            <mxPoint x="-1940" y="980" as="targetPoint" />
          </mxGeometry>
        </mxCell>
        <mxCell id="1d41M1mvJh5Ujd5rTAgr-250" value="" style="endArrow=none;html=1;rounded=0;" parent="1" edge="1">
          <mxGeometry width="50" height="50" relative="1" as="geometry">
            <mxPoint x="-2250" y="980" as="sourcePoint" />
            <mxPoint x="-1940" y="980" as="targetPoint" />
          </mxGeometry>
        </mxCell>
        <mxCell id="1d41M1mvJh5Ujd5rTAgr-251" value="" style="endArrow=none;html=1;rounded=0;entryX=0.5;entryY=1;entryDx=0;entryDy=0;exitX=0.5;exitY=0;exitDx=0;exitDy=0;" parent="1" source="1d41M1mvJh5Ujd5rTAgr-137" target="1d41M1mvJh5Ujd5rTAgr-35" edge="1">
          <mxGeometry width="50" height="50" relative="1" as="geometry">
            <mxPoint x="-1690" y="810" as="sourcePoint" />
            <mxPoint x="-1640" y="760" as="targetPoint" />
          </mxGeometry>
        </mxCell>
        <mxCell id="1d41M1mvJh5Ujd5rTAgr-252" value="" style="endArrow=none;html=1;rounded=0;" parent="1" edge="1">
          <mxGeometry width="50" height="50" relative="1" as="geometry">
            <mxPoint x="-1840" y="810" as="sourcePoint" />
            <mxPoint x="-1840" y="770" as="targetPoint" />
          </mxGeometry>
        </mxCell>
        <mxCell id="1d41M1mvJh5Ujd5rTAgr-253" value="" style="endArrow=none;html=1;rounded=0;" parent="1" edge="1">
          <mxGeometry width="50" height="50" relative="1" as="geometry">
            <mxPoint x="-1540" y="810" as="sourcePoint" />
            <mxPoint x="-1540" y="770" as="targetPoint" />
          </mxGeometry>
        </mxCell>
        <mxCell id="1d41M1mvJh5Ujd5rTAgr-254" value="" style="endArrow=none;html=1;rounded=0;" parent="1" edge="1">
          <mxGeometry width="50" height="50" relative="1" as="geometry">
            <mxPoint x="-1840" y="770" as="sourcePoint" />
            <mxPoint x="-1540" y="770" as="targetPoint" />
          </mxGeometry>
        </mxCell>
        <mxCell id="1d41M1mvJh5Ujd5rTAgr-255" value="" style="endArrow=none;html=1;rounded=0;exitX=0.531;exitY=-0.001;exitDx=0;exitDy=0;exitPerimeter=0;" parent="1" source="1d41M1mvJh5Ujd5rTAgr-143" edge="1">
          <mxGeometry width="50" height="50" relative="1" as="geometry">
            <mxPoint x="-1230" y="1020" as="sourcePoint" />
            <mxPoint x="-1260" y="720" as="targetPoint" />
          </mxGeometry>
        </mxCell>
        <mxCell id="1d41M1mvJh5Ujd5rTAgr-256" value="" style="endArrow=none;html=1;rounded=0;" parent="1" edge="1">
          <mxGeometry width="50" height="50" relative="1" as="geometry">
            <mxPoint x="-1420" y="1040" as="sourcePoint" />
            <mxPoint x="-1420" y="980" as="targetPoint" />
          </mxGeometry>
        </mxCell>
        <mxCell id="1d41M1mvJh5Ujd5rTAgr-257" value="" style="endArrow=none;html=1;rounded=0;" parent="1" edge="1">
          <mxGeometry width="50" height="50" relative="1" as="geometry">
            <mxPoint x="-1110" y="1040" as="sourcePoint" />
            <mxPoint x="-1110" y="980" as="targetPoint" />
          </mxGeometry>
        </mxCell>
        <mxCell id="1d41M1mvJh5Ujd5rTAgr-258" value="" style="endArrow=none;html=1;rounded=0;" parent="1" edge="1">
          <mxGeometry width="50" height="50" relative="1" as="geometry">
            <mxPoint x="-1420" y="980" as="sourcePoint" />
            <mxPoint x="-1110" y="980" as="targetPoint" />
          </mxGeometry>
        </mxCell>
        <mxCell id="1d41M1mvJh5Ujd5rTAgr-259" value="" style="endArrow=none;html=1;rounded=0;" parent="1" edge="1">
          <mxGeometry width="50" height="50" relative="1" as="geometry">
            <mxPoint x="-950" y="820" as="sourcePoint" />
            <mxPoint x="-950" y="770" as="targetPoint" />
          </mxGeometry>
        </mxCell>
        <mxCell id="1d41M1mvJh5Ujd5rTAgr-260" value="" style="endArrow=none;html=1;rounded=0;" parent="1" edge="1">
          <mxGeometry width="50" height="50" relative="1" as="geometry">
            <mxPoint x="-800" y="820" as="sourcePoint" />
            <mxPoint x="-800" y="720" as="targetPoint" />
          </mxGeometry>
        </mxCell>
        <mxCell id="1d41M1mvJh5Ujd5rTAgr-261" value="" style="endArrow=none;html=1;rounded=0;" parent="1" edge="1">
          <mxGeometry width="50" height="50" relative="1" as="geometry">
            <mxPoint x="-640" y="820" as="sourcePoint" />
            <mxPoint x="-640" y="770" as="targetPoint" />
          </mxGeometry>
        </mxCell>
        <mxCell id="1d41M1mvJh5Ujd5rTAgr-262" value="" style="endArrow=none;html=1;rounded=0;" parent="1" edge="1">
          <mxGeometry width="50" height="50" relative="1" as="geometry">
            <mxPoint x="-950" y="770" as="sourcePoint" />
            <mxPoint x="-640" y="770" as="targetPoint" />
          </mxGeometry>
        </mxCell>
        <mxCell id="1d41M1mvJh5Ujd5rTAgr-263" value="" style="endArrow=none;html=1;rounded=0;exitX=0.46;exitY=-0.016;exitDx=0;exitDy=0;exitPerimeter=0;" parent="1" source="1d41M1mvJh5Ujd5rTAgr-76" edge="1">
          <mxGeometry width="50" height="50" relative="1" as="geometry">
            <mxPoint x="-430" y="770" as="sourcePoint" />
            <mxPoint x="-380" y="720" as="targetPoint" />
          </mxGeometry>
        </mxCell>
        <mxCell id="1d41M1mvJh5Ujd5rTAgr-264" value="" style="endArrow=none;html=1;rounded=0;" parent="1" edge="1">
          <mxGeometry width="50" height="50" relative="1" as="geometry">
            <mxPoint x="-520" y="1040" as="sourcePoint" />
            <mxPoint x="-520" y="980" as="targetPoint" />
          </mxGeometry>
        </mxCell>
        <mxCell id="1d41M1mvJh5Ujd5rTAgr-265" value="" style="endArrow=none;html=1;rounded=0;" parent="1" edge="1">
          <mxGeometry width="50" height="50" relative="1" as="geometry">
            <mxPoint x="-220" y="1040" as="sourcePoint" />
            <mxPoint x="-220" y="980" as="targetPoint" />
          </mxGeometry>
        </mxCell>
        <mxCell id="1d41M1mvJh5Ujd5rTAgr-266" value="" style="endArrow=none;html=1;rounded=0;" parent="1" edge="1">
          <mxGeometry width="50" height="50" relative="1" as="geometry">
            <mxPoint x="-520" y="980" as="sourcePoint" />
            <mxPoint x="-220" y="980" as="targetPoint" />
          </mxGeometry>
        </mxCell>
        <mxCell id="1d41M1mvJh5Ujd5rTAgr-268" value="" style="endArrow=none;html=1;rounded=0;" parent="1" edge="1">
          <mxGeometry width="50" height="50" relative="1" as="geometry">
            <mxPoint x="20" y="820" as="sourcePoint" />
            <mxPoint x="20" y="720" as="targetPoint" />
          </mxGeometry>
        </mxCell>
        <mxCell id="1d41M1mvJh5Ujd5rTAgr-269" value="" style="endArrow=none;html=1;rounded=0;" parent="1" edge="1">
          <mxGeometry width="50" height="50" relative="1" as="geometry">
            <mxPoint x="-140" y="820" as="sourcePoint" />
            <mxPoint x="-140" y="770" as="targetPoint" />
          </mxGeometry>
        </mxCell>
        <mxCell id="1d41M1mvJh5Ujd5rTAgr-270" value="" style="endArrow=none;html=1;rounded=0;" parent="1" edge="1">
          <mxGeometry width="50" height="50" relative="1" as="geometry">
            <mxPoint x="170" y="820" as="sourcePoint" />
            <mxPoint x="170" y="770" as="targetPoint" />
          </mxGeometry>
        </mxCell>
        <mxCell id="1d41M1mvJh5Ujd5rTAgr-271" value="" style="endArrow=none;html=1;rounded=0;" parent="1" edge="1">
          <mxGeometry width="50" height="50" relative="1" as="geometry">
            <mxPoint x="-140" y="770" as="sourcePoint" />
            <mxPoint x="170" y="770" as="targetPoint" />
          </mxGeometry>
        </mxCell>
        <mxCell id="1d41M1mvJh5Ujd5rTAgr-272" value="" style="endArrow=none;html=1;rounded=0;entryX=0.426;entryY=0.98;entryDx=0;entryDy=0;entryPerimeter=0;" parent="1" target="1d41M1mvJh5Ujd5rTAgr-20" edge="1">
          <mxGeometry width="50" height="50" relative="1" as="geometry">
            <mxPoint x="440" y="1040" as="sourcePoint" />
            <mxPoint x="450" y="730" as="targetPoint" />
          </mxGeometry>
        </mxCell>
        <mxCell id="1d41M1mvJh5Ujd5rTAgr-273" value="" style="endArrow=none;html=1;rounded=0;" parent="1" edge="1">
          <mxGeometry width="50" height="50" relative="1" as="geometry">
            <mxPoint x="300" y="1040" as="sourcePoint" />
            <mxPoint x="300" y="980" as="targetPoint" />
          </mxGeometry>
        </mxCell>
        <mxCell id="1d41M1mvJh5Ujd5rTAgr-274" value="" style="endArrow=none;html=1;rounded=0;" parent="1" edge="1">
          <mxGeometry width="50" height="50" relative="1" as="geometry">
            <mxPoint x="600" y="1040" as="sourcePoint" />
            <mxPoint x="600" y="980" as="targetPoint" />
          </mxGeometry>
        </mxCell>
        <mxCell id="1d41M1mvJh5Ujd5rTAgr-275" value="" style="endArrow=none;html=1;rounded=0;" parent="1" edge="1">
          <mxGeometry width="50" height="50" relative="1" as="geometry">
            <mxPoint x="300" y="980" as="sourcePoint" />
            <mxPoint x="600" y="980" as="targetPoint" />
          </mxGeometry>
        </mxCell>
        <mxCell id="1d41M1mvJh5Ujd5rTAgr-276" value="" style="endArrow=none;html=1;rounded=0;" parent="1" edge="1">
          <mxGeometry width="50" height="50" relative="1" as="geometry">
            <mxPoint x="860" y="840" as="sourcePoint" />
            <mxPoint x="860" y="730" as="targetPoint" />
          </mxGeometry>
        </mxCell>
        <mxCell id="1d41M1mvJh5Ujd5rTAgr-278" value="" style="endArrow=none;html=1;rounded=0;" parent="1" edge="1">
          <mxGeometry width="50" height="50" relative="1" as="geometry">
            <mxPoint x="710" y="840" as="sourcePoint" />
            <mxPoint x="710" y="770" as="targetPoint" />
          </mxGeometry>
        </mxCell>
        <mxCell id="1d41M1mvJh5Ujd5rTAgr-279" value="" style="endArrow=none;html=1;rounded=0;" parent="1" edge="1">
          <mxGeometry width="50" height="50" relative="1" as="geometry">
            <mxPoint x="1020" y="840" as="sourcePoint" />
            <mxPoint x="1020" y="770" as="targetPoint" />
          </mxGeometry>
        </mxCell>
        <mxCell id="1d41M1mvJh5Ujd5rTAgr-280" value="" style="endArrow=none;html=1;rounded=0;" parent="1" edge="1">
          <mxGeometry width="50" height="50" relative="1" as="geometry">
            <mxPoint x="710" y="770" as="sourcePoint" />
            <mxPoint x="1020" y="770" as="targetPoint" />
          </mxGeometry>
        </mxCell>
        <mxCell id="1d41M1mvJh5Ujd5rTAgr-281" value="" style="endArrow=none;html=1;rounded=0;" parent="1" edge="1">
          <mxGeometry width="50" height="50" relative="1" as="geometry">
            <mxPoint x="1300" y="1040" as="sourcePoint" />
            <mxPoint x="1300" y="730" as="targetPoint" />
          </mxGeometry>
        </mxCell>
        <mxCell id="1d41M1mvJh5Ujd5rTAgr-282" value="" style="endArrow=none;html=1;rounded=0;" parent="1" edge="1">
          <mxGeometry width="50" height="50" relative="1" as="geometry">
            <mxPoint x="1150" y="1040" as="sourcePoint" />
            <mxPoint x="1150" y="980" as="targetPoint" />
          </mxGeometry>
        </mxCell>
        <mxCell id="1d41M1mvJh5Ujd5rTAgr-283" value="" style="endArrow=none;html=1;rounded=0;" parent="1" edge="1">
          <mxGeometry width="50" height="50" relative="1" as="geometry">
            <mxPoint x="1450" y="1040" as="sourcePoint" />
            <mxPoint x="1450" y="980" as="targetPoint" />
          </mxGeometry>
        </mxCell>
        <mxCell id="1d41M1mvJh5Ujd5rTAgr-284" value="" style="endArrow=none;html=1;rounded=0;" parent="1" edge="1">
          <mxGeometry width="50" height="50" relative="1" as="geometry">
            <mxPoint x="1150" y="980" as="sourcePoint" />
            <mxPoint x="1450" y="980" as="targetPoint" />
          </mxGeometry>
        </mxCell>
        <mxCell id="1d41M1mvJh5Ujd5rTAgr-285" value="" style="endArrow=none;html=1;rounded=0;exitX=0.454;exitY=0.004;exitDx=0;exitDy=0;exitPerimeter=0;" parent="1" source="1d41M1mvJh5Ujd5rTAgr-106" edge="1">
          <mxGeometry width="50" height="50" relative="1" as="geometry">
            <mxPoint x="1620" y="780" as="sourcePoint" />
            <mxPoint x="1670" y="730" as="targetPoint" />
          </mxGeometry>
        </mxCell>
        <mxCell id="1d41M1mvJh5Ujd5rTAgr-286" value="" style="endArrow=none;html=1;rounded=0;" parent="1" edge="1">
          <mxGeometry width="50" height="50" relative="1" as="geometry">
            <mxPoint x="1520" y="840" as="sourcePoint" />
            <mxPoint x="1520" y="770" as="targetPoint" />
          </mxGeometry>
        </mxCell>
        <mxCell id="1d41M1mvJh5Ujd5rTAgr-287" value="" style="endArrow=none;html=1;rounded=0;" parent="1" edge="1">
          <mxGeometry width="50" height="50" relative="1" as="geometry">
            <mxPoint x="1830" y="840" as="sourcePoint" />
            <mxPoint x="1830" y="770" as="targetPoint" />
          </mxGeometry>
        </mxCell>
        <mxCell id="1d41M1mvJh5Ujd5rTAgr-288" value="" style="endArrow=none;html=1;rounded=0;" parent="1" edge="1">
          <mxGeometry width="50" height="50" relative="1" as="geometry">
            <mxPoint x="1520" y="770" as="sourcePoint" />
            <mxPoint x="1830" y="770" as="targetPoint" />
          </mxGeometry>
        </mxCell>
        <mxCell id="1d41M1mvJh5Ujd5rTAgr-289" value="" style="endArrow=none;html=1;rounded=0;" parent="1" edge="1">
          <mxGeometry width="50" height="50" relative="1" as="geometry">
            <mxPoint x="2060" y="1040" as="sourcePoint" />
            <mxPoint x="2060" y="730" as="targetPoint" />
          </mxGeometry>
        </mxCell>
        <mxCell id="1d41M1mvJh5Ujd5rTAgr-291" value="" style="endArrow=none;html=1;rounded=0;" parent="1" edge="1">
          <mxGeometry width="50" height="50" relative="1" as="geometry">
            <mxPoint x="1920" y="1040" as="sourcePoint" />
            <mxPoint x="1920" y="980" as="targetPoint" />
          </mxGeometry>
        </mxCell>
        <mxCell id="1d41M1mvJh5Ujd5rTAgr-292" value="" style="endArrow=none;html=1;rounded=0;" parent="1" edge="1">
          <mxGeometry width="50" height="50" relative="1" as="geometry">
            <mxPoint x="2220" y="1040" as="sourcePoint" />
            <mxPoint x="2220" y="980" as="targetPoint" />
          </mxGeometry>
        </mxCell>
        <mxCell id="1d41M1mvJh5Ujd5rTAgr-293" value="" style="endArrow=none;html=1;rounded=0;" parent="1" edge="1">
          <mxGeometry width="50" height="50" relative="1" as="geometry">
            <mxPoint x="1920" y="980" as="sourcePoint" />
            <mxPoint x="2220" y="980" as="targetPoint" />
          </mxGeometry>
        </mxCell>
        <mxCell id="1d41M1mvJh5Ujd5rTAgr-294" value="" style="endArrow=none;html=1;rounded=0;exitX=0.542;exitY=-0.006;exitDx=0;exitDy=0;exitPerimeter=0;" parent="1" source="1d41M1mvJh5Ujd5rTAgr-118" edge="1">
          <mxGeometry width="50" height="50" relative="1" as="geometry">
            <mxPoint x="2440" y="780" as="sourcePoint" />
            <mxPoint x="2490" y="730" as="targetPoint" />
          </mxGeometry>
        </mxCell>
        <mxCell id="1d41M1mvJh5Ujd5rTAgr-295" value="" style="endArrow=none;html=1;rounded=0;" parent="1" edge="1">
          <mxGeometry width="50" height="50" relative="1" as="geometry">
            <mxPoint x="2330" y="840" as="sourcePoint" />
            <mxPoint x="2330" y="770" as="targetPoint" />
          </mxGeometry>
        </mxCell>
        <mxCell id="1d41M1mvJh5Ujd5rTAgr-296" value="" style="endArrow=none;html=1;rounded=0;" parent="1" edge="1">
          <mxGeometry width="50" height="50" relative="1" as="geometry">
            <mxPoint x="2640" y="840" as="sourcePoint" />
            <mxPoint x="2640" y="770" as="targetPoint" />
          </mxGeometry>
        </mxCell>
        <mxCell id="1d41M1mvJh5Ujd5rTAgr-297" value="" style="endArrow=none;html=1;rounded=0;" parent="1" edge="1">
          <mxGeometry width="50" height="50" relative="1" as="geometry">
            <mxPoint x="2330" y="770" as="sourcePoint" />
            <mxPoint x="2640" y="770" as="targetPoint" />
          </mxGeometry>
        </mxCell>
        <mxCell id="1d41M1mvJh5Ujd5rTAgr-298" value="1.0" style="text;html=1;align=center;verticalAlign=middle;whiteSpace=wrap;rounded=0;" parent="1" vertex="1">
          <mxGeometry x="-2910" y="420" width="60" height="30" as="geometry" />
        </mxCell>
        <mxCell id="1d41M1mvJh5Ujd5rTAgr-305" value="5.0" style="text;html=1;align=center;verticalAlign=middle;whiteSpace=wrap;rounded=0;" parent="1" vertex="1">
          <mxGeometry x="2080" y="420" width="60" height="30" as="geometry" />
        </mxCell>
        <mxCell id="1d41M1mvJh5Ujd5rTAgr-306" value="4.0" style="text;html=1;align=center;verticalAlign=middle;whiteSpace=wrap;rounded=0;" parent="1" vertex="1">
          <mxGeometry x="890" y="420" width="60" height="30" as="geometry" />
        </mxCell>
        <mxCell id="1d41M1mvJh5Ujd5rTAgr-308" value="2.0" style="text;html=1;align=center;verticalAlign=middle;whiteSpace=wrap;rounded=0;" parent="1" vertex="1">
          <mxGeometry x="-1670" y="420" width="60" height="30" as="geometry" />
        </mxCell>
        <mxCell id="1d41M1mvJh5Ujd5rTAgr-309" value="1.1" style="text;html=1;align=center;verticalAlign=middle;whiteSpace=wrap;rounded=0;" parent="1" vertex="1">
          <mxGeometry x="-3290" y="620" width="60" height="30" as="geometry" />
        </mxCell>
        <mxCell id="1d41M1mvJh5Ujd5rTAgr-310" value="1.1.3" style="text;html=1;align=center;verticalAlign=middle;whiteSpace=wrap;rounded=0;" parent="1" vertex="1">
          <mxGeometry x="-3150" y="790" width="60" height="30" as="geometry" />
        </mxCell>
        <mxCell id="1d41M1mvJh5Ujd5rTAgr-311" value="1.1.2" style="text;html=1;align=center;verticalAlign=middle;whiteSpace=wrap;rounded=0;" parent="1" vertex="1">
          <mxGeometry x="-3300" y="790" width="60" height="30" as="geometry" />
        </mxCell>
        <mxCell id="1d41M1mvJh5Ujd5rTAgr-312" value="1.1.1" style="text;html=1;align=center;verticalAlign=middle;whiteSpace=wrap;rounded=0;" parent="1" vertex="1">
          <mxGeometry x="-3450" y="790" width="60" height="30" as="geometry" />
        </mxCell>
        <mxCell id="1d41M1mvJh5Ujd5rTAgr-313" value="1.3" style="text;html=1;align=center;verticalAlign=middle;whiteSpace=wrap;rounded=0;" parent="1" vertex="1">
          <mxGeometry x="-2530" y="620" width="60" height="30" as="geometry" />
        </mxCell>
        <mxCell id="1d41M1mvJh5Ujd5rTAgr-314" value="1.2" style="text;html=1;align=center;verticalAlign=middle;whiteSpace=wrap;rounded=0;" parent="1" vertex="1">
          <mxGeometry x="-2910" y="620" width="60" height="30" as="geometry" />
        </mxCell>
        <mxCell id="1d41M1mvJh5Ujd5rTAgr-316" value="1.2.2" style="text;html=1;align=center;verticalAlign=middle;whiteSpace=wrap;rounded=0;" parent="1" vertex="1">
          <mxGeometry x="-2920" y="1010" width="60" height="30" as="geometry" />
        </mxCell>
        <mxCell id="1d41M1mvJh5Ujd5rTAgr-317" value="1.2.1" style="text;html=1;align=center;verticalAlign=middle;whiteSpace=wrap;rounded=0;" parent="1" vertex="1">
          <mxGeometry x="-3070" y="1010" width="60" height="30" as="geometry" />
        </mxCell>
        <mxCell id="1d41M1mvJh5Ujd5rTAgr-315" value="1.2.3" style="text;html=1;align=center;verticalAlign=middle;whiteSpace=wrap;rounded=0;" parent="1" vertex="1">
          <mxGeometry x="-2760" y="1010" width="60" height="30" as="geometry" />
        </mxCell>
        <mxCell id="1d41M1mvJh5Ujd5rTAgr-318" value="1.3.3" style="text;html=1;align=center;verticalAlign=middle;whiteSpace=wrap;rounded=0;" parent="1" vertex="1">
          <mxGeometry x="-2390" y="790" width="60" height="30" as="geometry" />
        </mxCell>
        <mxCell id="1d41M1mvJh5Ujd5rTAgr-320" value="1.3.1" style="text;html=1;align=center;verticalAlign=middle;whiteSpace=wrap;rounded=0;" parent="1" vertex="1">
          <mxGeometry x="-2680" y="790" width="60" height="30" as="geometry" />
        </mxCell>
        <mxCell id="1d41M1mvJh5Ujd5rTAgr-319" value="1.3.2" style="text;html=1;align=center;verticalAlign=middle;whiteSpace=wrap;rounded=0;" parent="1" vertex="1">
          <mxGeometry x="-2529" y="790" width="60" height="30" as="geometry" />
        </mxCell>
        <mxCell id="1d41M1mvJh5Ujd5rTAgr-321" value="2.1" style="text;html=1;align=center;verticalAlign=middle;whiteSpace=wrap;rounded=0;" parent="1" vertex="1">
          <mxGeometry x="-2070" y="620" width="60" height="30" as="geometry" />
        </mxCell>
        <mxCell id="1d41M1mvJh5Ujd5rTAgr-326" value="2.3.2" style="text;html=1;align=center;verticalAlign=middle;whiteSpace=wrap;rounded=0;" parent="1" vertex="1">
          <mxGeometry x="-1250" y="1020" width="60" height="30" as="geometry" />
        </mxCell>
        <mxCell id="1d41M1mvJh5Ujd5rTAgr-327" value="2.3.1" style="text;html=1;align=center;verticalAlign=middle;whiteSpace=wrap;rounded=0;" parent="1" vertex="1">
          <mxGeometry x="-1400" y="1020" width="60" height="30" as="geometry" />
        </mxCell>
        <mxCell id="1d41M1mvJh5Ujd5rTAgr-329" value="2.2.2" style="text;html=1;align=center;verticalAlign=middle;whiteSpace=wrap;rounded=0;" parent="1" vertex="1">
          <mxGeometry x="-1680" y="790" width="60" height="30" as="geometry" />
        </mxCell>
        <mxCell id="1d41M1mvJh5Ujd5rTAgr-330" value="2.2.1" style="text;html=1;align=center;verticalAlign=middle;whiteSpace=wrap;rounded=0;" parent="1" vertex="1">
          <mxGeometry x="-1830" y="790" width="60" height="30" as="geometry" />
        </mxCell>
        <mxCell id="1d41M1mvJh5Ujd5rTAgr-331" value="2.3" style="text;html=1;align=center;verticalAlign=middle;whiteSpace=wrap;rounded=0;" parent="1" vertex="1">
          <mxGeometry x="-1240" y="620" width="60" height="30" as="geometry" />
        </mxCell>
        <mxCell id="1d41M1mvJh5Ujd5rTAgr-332" value="2.2" style="text;html=1;align=center;verticalAlign=middle;whiteSpace=wrap;rounded=0;" parent="1" vertex="1">
          <mxGeometry x="-1670" y="620" width="60" height="30" as="geometry" />
        </mxCell>
        <mxCell id="1d41M1mvJh5Ujd5rTAgr-334" value="2.1.2" style="text;html=1;align=center;verticalAlign=middle;whiteSpace=wrap;rounded=0;" parent="1" vertex="1">
          <mxGeometry x="-2080" y="1020" width="60" height="30" as="geometry" />
        </mxCell>
        <mxCell id="1d41M1mvJh5Ujd5rTAgr-335" value="2.1.1" style="text;html=1;align=center;verticalAlign=middle;whiteSpace=wrap;rounded=0;" parent="1" vertex="1">
          <mxGeometry x="-2230" y="1020" width="60" height="30" as="geometry" />
        </mxCell>
        <mxCell id="1d41M1mvJh5Ujd5rTAgr-336" value="3.1" style="text;html=1;align=center;verticalAlign=middle;whiteSpace=wrap;rounded=0;" parent="1" vertex="1">
          <mxGeometry x="-760" y="620" width="60" height="30" as="geometry" />
        </mxCell>
        <mxCell id="1d41M1mvJh5Ujd5rTAgr-339" value="3.3.3" style="text;html=1;align=center;verticalAlign=middle;whiteSpace=wrap;rounded=0;" parent="1" vertex="1">
          <mxGeometry x="180" y="800" width="60" height="30" as="geometry" />
        </mxCell>
        <mxCell id="1d41M1mvJh5Ujd5rTAgr-341" value="3.3.2" style="text;html=1;align=center;verticalAlign=middle;whiteSpace=wrap;rounded=0;" parent="1" vertex="1">
          <mxGeometry x="30" y="800" width="60" height="30" as="geometry" />
        </mxCell>
        <mxCell id="1d41M1mvJh5Ujd5rTAgr-342" value="3.3.1" style="text;html=1;align=center;verticalAlign=middle;whiteSpace=wrap;rounded=0;" parent="1" vertex="1">
          <mxGeometry x="-120" y="800" width="60" height="30" as="geometry" />
        </mxCell>
        <mxCell id="1d41M1mvJh5Ujd5rTAgr-343" value="3.2.3" style="text;html=1;align=center;verticalAlign=middle;whiteSpace=wrap;rounded=0;" parent="1" vertex="1">
          <mxGeometry x="-210" y="1020" width="60" height="30" as="geometry" />
        </mxCell>
        <mxCell id="1d41M1mvJh5Ujd5rTAgr-344" value="3.2.2" style="text;html=1;align=center;verticalAlign=middle;whiteSpace=wrap;rounded=0;" parent="1" vertex="1">
          <mxGeometry x="-360" y="1020" width="60" height="30" as="geometry" />
        </mxCell>
        <mxCell id="1d41M1mvJh5Ujd5rTAgr-345" value="3.2.1" style="text;html=1;align=center;verticalAlign=middle;whiteSpace=wrap;rounded=0;" parent="1" vertex="1">
          <mxGeometry x="-510" y="1020" width="60" height="30" as="geometry" />
        </mxCell>
        <mxCell id="1d41M1mvJh5Ujd5rTAgr-347" value="3.1.2" style="text;html=1;align=center;verticalAlign=middle;whiteSpace=wrap;rounded=0;" parent="1" vertex="1">
          <mxGeometry x="-780" y="800" width="60" height="30" as="geometry" />
        </mxCell>
        <mxCell id="1d41M1mvJh5Ujd5rTAgr-349" value="3.3" style="text;html=1;align=center;verticalAlign=middle;whiteSpace=wrap;rounded=0;" parent="1" vertex="1">
          <mxGeometry x="40" y="620" width="60" height="30" as="geometry" />
        </mxCell>
        <mxCell id="1d41M1mvJh5Ujd5rTAgr-350" value="3.2" style="text;html=1;align=center;verticalAlign=middle;whiteSpace=wrap;rounded=0;" parent="1" vertex="1">
          <mxGeometry x="-350" y="620" width="60" height="30" as="geometry" />
        </mxCell>
        <mxCell id="1d41M1mvJh5Ujd5rTAgr-348" value="3.1.1" style="text;html=1;align=center;verticalAlign=middle;whiteSpace=wrap;rounded=0;" parent="1" vertex="1">
          <mxGeometry x="-920" y="800" width="60" height="30" as="geometry" />
        </mxCell>
        <mxCell id="1d41M1mvJh5Ujd5rTAgr-351" value="4.1" style="text;html=1;align=center;verticalAlign=middle;whiteSpace=wrap;rounded=0;" parent="1" vertex="1">
          <mxGeometry x="480" y="630" width="60" height="30" as="geometry" />
        </mxCell>
        <mxCell id="1d41M1mvJh5Ujd5rTAgr-352" value="4.3" style="text;html=1;align=center;verticalAlign=middle;whiteSpace=wrap;rounded=0;" parent="1" vertex="1">
          <mxGeometry x="1320" y="630" width="60" height="30" as="geometry" />
        </mxCell>
        <mxCell id="1d41M1mvJh5Ujd5rTAgr-357" value="4.3.3" style="text;html=1;align=center;verticalAlign=middle;whiteSpace=wrap;rounded=0;" parent="1" vertex="1">
          <mxGeometry x="1460" y="1020" width="60" height="30" as="geometry" />
        </mxCell>
        <mxCell id="1d41M1mvJh5Ujd5rTAgr-358" value="4.3.2" style="text;html=1;align=center;verticalAlign=middle;whiteSpace=wrap;rounded=0;" parent="1" vertex="1">
          <mxGeometry x="1310" y="1020" width="60" height="30" as="geometry" />
        </mxCell>
        <mxCell id="1d41M1mvJh5Ujd5rTAgr-359" value="4.3.1" style="text;html=1;align=center;verticalAlign=middle;whiteSpace=wrap;rounded=0;" parent="1" vertex="1">
          <mxGeometry x="1160" y="1020" width="60" height="30" as="geometry" />
        </mxCell>
        <mxCell id="1d41M1mvJh5Ujd5rTAgr-360" value="4.2.3" style="text;html=1;align=center;verticalAlign=middle;whiteSpace=wrap;rounded=0;" parent="1" vertex="1">
          <mxGeometry x="1030" y="820" width="60" height="30" as="geometry" />
        </mxCell>
        <mxCell id="1d41M1mvJh5Ujd5rTAgr-361" value="4.2.2" style="text;html=1;align=center;verticalAlign=middle;whiteSpace=wrap;rounded=0;" parent="1" vertex="1">
          <mxGeometry x="880" y="820" width="60" height="30" as="geometry" />
        </mxCell>
        <mxCell id="1d41M1mvJh5Ujd5rTAgr-362" value="4.2.1" style="text;html=1;align=center;verticalAlign=middle;whiteSpace=wrap;rounded=0;" parent="1" vertex="1">
          <mxGeometry x="730" y="820" width="60" height="30" as="geometry" />
        </mxCell>
        <mxCell id="1d41M1mvJh5Ujd5rTAgr-363" value="4.1.3" style="text;html=1;align=center;verticalAlign=middle;whiteSpace=wrap;rounded=0;" parent="1" vertex="1">
          <mxGeometry x="610" y="1020" width="60" height="30" as="geometry" />
        </mxCell>
        <mxCell id="1d41M1mvJh5Ujd5rTAgr-364" value="4.1.2" style="text;html=1;align=center;verticalAlign=middle;whiteSpace=wrap;rounded=0;" parent="1" vertex="1">
          <mxGeometry x="460" y="1020" width="60" height="30" as="geometry" />
        </mxCell>
        <mxCell id="1d41M1mvJh5Ujd5rTAgr-365" value="4.1.1" style="text;html=1;align=center;verticalAlign=middle;whiteSpace=wrap;rounded=0;" parent="1" vertex="1">
          <mxGeometry x="310" y="1020" width="60" height="30" as="geometry" />
        </mxCell>
        <mxCell id="1d41M1mvJh5Ujd5rTAgr-366" value="4.2" style="text;html=1;align=center;verticalAlign=middle;whiteSpace=wrap;rounded=0;" parent="1" vertex="1">
          <mxGeometry x="890" y="630" width="60" height="30" as="geometry" />
        </mxCell>
        <mxCell id="1d41M1mvJh5Ujd5rTAgr-368" value="5.1" style="text;html=1;align=center;verticalAlign=middle;whiteSpace=wrap;rounded=0;" parent="1" vertex="1">
          <mxGeometry x="1710" y="630" width="60" height="30" as="geometry" />
        </mxCell>
        <mxCell id="1d41M1mvJh5Ujd5rTAgr-370" value="5.3.3" style="text;html=1;align=center;verticalAlign=middle;whiteSpace=wrap;rounded=0;" parent="1" vertex="1">
          <mxGeometry x="2650" y="820" width="60" height="30" as="geometry" />
        </mxCell>
        <mxCell id="1d41M1mvJh5Ujd5rTAgr-371" value="5.3.2" style="text;html=1;align=center;verticalAlign=middle;whiteSpace=wrap;rounded=0;" parent="1" vertex="1">
          <mxGeometry x="2500" y="820" width="60" height="30" as="geometry" />
        </mxCell>
        <mxCell id="1d41M1mvJh5Ujd5rTAgr-372" value="5.3.1" style="text;html=1;align=center;verticalAlign=middle;whiteSpace=wrap;rounded=0;" parent="1" vertex="1">
          <mxGeometry x="2350" y="820" width="60" height="30" as="geometry" />
        </mxCell>
        <mxCell id="1d41M1mvJh5Ujd5rTAgr-374" value="5.2.2" style="text;html=1;align=center;verticalAlign=middle;whiteSpace=wrap;rounded=0;" parent="1" vertex="1">
          <mxGeometry x="2080" y="1020" width="60" height="30" as="geometry" />
        </mxCell>
        <mxCell id="1d41M1mvJh5Ujd5rTAgr-375" value="5.2.1" style="text;html=1;align=center;verticalAlign=middle;whiteSpace=wrap;rounded=0;" parent="1" vertex="1">
          <mxGeometry x="1930" y="1020" width="60" height="30" as="geometry" />
        </mxCell>
        <mxCell id="1d41M1mvJh5Ujd5rTAgr-377" value="5.1.2" style="text;html=1;align=center;verticalAlign=middle;whiteSpace=wrap;rounded=0;" parent="1" vertex="1">
          <mxGeometry x="1690" y="820" width="60" height="30" as="geometry" />
        </mxCell>
        <mxCell id="1d41M1mvJh5Ujd5rTAgr-378" value="5.1.1" style="text;html=1;align=center;verticalAlign=middle;whiteSpace=wrap;rounded=0;" parent="1" vertex="1">
          <mxGeometry x="1540" y="820" width="60" height="30" as="geometry" />
        </mxCell>
        <mxCell id="1d41M1mvJh5Ujd5rTAgr-380" value="5.2" style="text;html=1;align=center;verticalAlign=middle;whiteSpace=wrap;rounded=0;" parent="1" vertex="1">
          <mxGeometry x="2100" y="630" width="60" height="30" as="geometry" />
        </mxCell>
        <mxCell id="1d41M1mvJh5Ujd5rTAgr-376" value="5.1.3" style="text;html=1;align=center;verticalAlign=middle;whiteSpace=wrap;rounded=0;" parent="1" vertex="1">
          <mxGeometry x="1850" y="820" width="60" height="30" as="geometry" />
        </mxCell>
        <mxCell id="1d41M1mvJh5Ujd5rTAgr-328" value="2.2.3" style="text;html=1;align=center;verticalAlign=middle;whiteSpace=wrap;rounded=0;" parent="1" vertex="1">
          <mxGeometry x="-1520" y="790" width="60" height="30" as="geometry" />
        </mxCell>
        <mxCell id="1d41M1mvJh5Ujd5rTAgr-333" value="2.1.3" style="text;html=1;align=center;verticalAlign=middle;whiteSpace=wrap;rounded=0;" parent="1" vertex="1">
          <mxGeometry x="-1920" y="1020" width="60" height="30" as="geometry" />
        </mxCell>
        <mxCell id="1d41M1mvJh5Ujd5rTAgr-307" value="3.0" style="text;html=1;align=center;verticalAlign=middle;whiteSpace=wrap;rounded=0;" parent="1" vertex="1">
          <mxGeometry x="-330" y="420" width="60" height="30" as="geometry" />
        </mxCell>
        <mxCell id="ctsrYZDfl3WpJa44ueW6-1" value="Level 0" style="text;html=1;align=center;verticalAlign=middle;whiteSpace=wrap;rounded=0;" vertex="1" parent="1">
          <mxGeometry x="-3590" y="240" width="60" height="30" as="geometry" />
        </mxCell>
        <mxCell id="ctsrYZDfl3WpJa44ueW6-2" value="Level 1" style="text;html=1;align=center;verticalAlign=middle;whiteSpace=wrap;rounded=0;" vertex="1" parent="1">
          <mxGeometry x="-3590" y="490" width="60" height="30" as="geometry" />
        </mxCell>
        <mxCell id="ctsrYZDfl3WpJa44ueW6-3" value="Level 2" style="text;html=1;align=center;verticalAlign=middle;whiteSpace=wrap;rounded=0;" vertex="1" parent="1">
          <mxGeometry x="-3590" y="690" width="60" height="30" as="geometry" />
        </mxCell>
        <mxCell id="ctsrYZDfl3WpJa44ueW6-4" value="Level 3" style="text;html=1;align=center;verticalAlign=middle;whiteSpace=wrap;rounded=0;" vertex="1" parent="1">
          <mxGeometry x="-3590" y="860" width="60" height="30" as="geometry" />
        </mxCell>
      </root>
    </mxGraphModel>
  </diagram>
</mxfile>
